<?xml version="1.0" standalone="no"?>
<!DOCTYPE svg PUBLIC "-//W3C//DTD SVG 20010904//EN"
 "http://www.w3.org/TR/2001/REC-SVG-20010904/DTD/svg10.dtd">
<svg version="1.0" xmlns="http://www.w3.org/2000/svg"
 width="400.000000pt" height="400.000000pt" viewBox="0 0 400.000000 400.000000"
 preserveAspectRatio="xMidYMid meet">
<metadata>
Created by potrace 1.11, written by Peter Selinger 2001-2013
</metadata>
<g transform="translate(0.000000,400.000000) scale(0.100000,-0.100000)"
fill="#000000" stroke="none">
<path d="M0 2000 l0 -2000 2000 0 2000 0 0 2000 0 2000 -2000 0 -2000 0 0
-2000z m2096 1679 c62 -16 74 -37 74 -132 0 -43 4 -86 10 -96 5 -10 64 -58
132 -106 181 -131 345 -271 508 -435 350 -349 531 -651 602 -1002 29 -146 32
-405 5 -540 -55 -278 -194 -532 -412 -753 -139 -142 -232 -213 -297 -230 -194
-50 -576 -80 -928 -72 -319 8 -388 17 -455 61 -144 96 -375 319 -487 469 -155
210 -256 455 -289 705 -15 110 -6 299 20 413 103 457 500 988 1028 1373 67 49
116 92 124 109 7 18 10 51 6 93 -8 85 3 109 62 128 25 8 57 17 71 19 53 9 183
6 226 -4z"/>
<path d="M1925 3253 c-16 -20 -88 -80 -160 -134 -133 -100 -310 -251 -328
-280 -8 -12 -3 -35 19 -85 68 -162 209 -326 357 -418 47 -29 309 -148 654
-297 402 -173 597 -262 642 -293 47 -32 67 -41 69 -31 6 25 -28 198 -55 284
-115 365 -496 797 -1044 1184 -37 25 -78 60 -92 77 -14 16 -27 30 -29 29 -2 0
-16 -17 -33 -36z"/>
<path d="M1135 2116 c-6 -30 1 -72 20 -118 5 -13 0 -16 -27 -15 -29 2 -33 -1
-36 -26 -3 -22 5 -36 30 -60 l34 -32 -38 3 c-34 4 -38 2 -38 -20 0 -13 5 -29
11 -35 7 -7 -5 -9 -40 -5 -70 6 -101 -3 -101 -31 0 -31 69 -64 157 -77 87 -12
145 -43 200 -107 l44 -51 -62 5 c-53 5 -64 3 -76 -12 -18 -25 -17 -29 12 -63
l25 -29 -46 -7 c-58 -8 -161 -62 -170 -89 -4 -14 -1 -25 12 -34 21 -15 111
-17 149 -3 l25 10 -15 -31 c-9 -17 -15 -40 -13 -52 4 -29 46 -28 111 3 47 22
62 41 81 104 6 16 13 18 56 12 72 -10 109 -29 162 -83 l47 -48 -97 0 c-86 0
-103 -3 -155 -29 -36 -17 -63 -38 -70 -53 -10 -22 -8 -28 13 -45 22 -18 36
-20 120 -16 85 4 101 7 156 38 60 33 61 33 105 19 24 -9 85 -47 136 -85 103
-77 102 -81 -10 -83 -45 -1 -75 6 -130 30 -78 35 -128 35 -196 1 -65 -31 -52
-87 23 -99 l41 -7 -34 -8 c-40 -11 -131 -100 -150 -147 -18 -43 1 -91 36 -91
38 0 91 26 123 61 l29 32 -15 -51 c-9 -28 -14 -64 -12 -79 2 -23 8 -29 34 -31
25 -2 43 6 87 42 54 44 67 47 67 19 0 -30 42 -111 60 -116 37 -10 70 40 70
106 l0 32 58 0 c73 0 153 36 220 99 27 26 59 46 71 46 12 0 43 -11 69 -24 63
-32 177 -72 228 -80 31 -6 45 -3 57 8 9 9 24 16 34 16 29 0 57 25 50 44 -4 10
-18 16 -39 16 -90 1 -363 95 -410 142 -30 30 -22 60 28 108 67 66 93 116 101
194 7 75 -3 96 -48 96 -37 0 -107 -67 -143 -137 -32 -62 -33 -51 -1 19 36 78
32 194 -12 285 -12 25 -22 33 -43 33 -15 0 -35 -8 -44 -19 -43 -48 -77 -201
-56 -255 l11 -29 -40 36 c-54 48 -92 67 -139 67 -60 0 -70 -43 -26 -118 15
-25 21 -41 15 -38 -6 4 -22 29 -36 55 -33 66 -22 105 40 150 52 37 90 101 81
137 -5 17 -2 26 9 30 25 10 67 90 60 114 -13 40 -124 10 -182 -49 l-35 -36 16
40 c10 22 34 60 55 85 52 62 57 72 76 172 14 71 15 91 5 103 -21 26 -57 17
-96 -22 -52 -55 -65 -86 -74 -182 -5 -47 -19 -116 -33 -153 l-24 -67 -34 51
c-45 68 -128 117 -170 101 -26 -10 -29 -9 -29 8 0 29 -27 77 -51 90 -28 15
-49 -6 -59 -58 l-8 -38 -1 43 c-1 36 5 50 45 98 41 51 45 60 42 103 -3 40 -6
46 -27 49 -28 4 -74 -36 -101 -88 l-18 -35 -10 40 c-6 22 -10 66 -10 97 1 76
-38 138 -87 138 -19 0 -25 -7 -30 -34z m417 -598 c103 -86 128 -124 128 -198
0 -21 -13 -12 -96 70 -52 52 -102 107 -110 122 -7 14 -16 53 -19 85 l-6 58 25
-47 c14 -26 49 -66 78 -90z m238 -22 c0 -2 -8 -10 -17 -17 -16 -13 -17 -12 -4
4 13 16 21 21 21 13z m337 -378 c-3 -8 -6 -5 -6 6 -1 11 2 17 5 13 3 -3 4 -12
1 -19z m-74 -76 c10 -9 24 -26 29 -37 11 -19 11 -19 -18 -1 -16 11 -45 30 -64
44 l-35 24 34 -6 c19 -3 43 -14 54 -24z m33 -149 l49 -17 -57 -7 c-65 -7 -111
-33 -163 -90 -20 -22 -38 -39 -39 -37 -35 53 -37 60 -26 93 18 55 52 75 125
75 34 0 84 -8 111 -17z m-326 -44 c-19 -16 -53 -34 -75 -40 -22 -6 -50 -17
-63 -25 -22 -15 -22 -15 -9 18 7 18 26 39 43 47 34 17 127 40 134 34 3 -3 -11
-18 -30 -34z"/>
</g>
</svg>
