<svg width="121" height="121" viewBox="0 0 121 121" fill="none" xmlns="http://www.w3.org/2000/svg">
<path d="M16.8045 42.3523C16.4159 42.7466 15.9151 43.0114 15.3703 43.1103C14.726 43.209 14.0668 43.1068 13.4826 42.8176C12.9239 42.598 12.445 42.2141 12.109 41.7167C11.773 41.2192 11.5958 40.6316 11.6007 40.0313C11.5976 39.4826 11.7092 38.9393 11.9285 38.4363C12.0609 38.1145 12.2266 37.8074 12.4231 37.5202C12.5688 37.3122 12.7313 37.1164 12.9089 36.9348C12.9492 36.8981 12.9873 36.859 13.0231 36.8178C13.0495 36.7875 13.0721 36.754 13.0904 36.7183L14.3753 37.2041C14.4162 37.2041 14.4396 37.2626 14.4426 37.3417C14.4472 37.406 14.4393 37.4706 14.4192 37.5319L14.3987 37.5875C14.3698 37.6542 14.3313 37.7163 14.2845 37.7719C14.2377 37.8275 14.1938 37.848 14.1528 37.8392C13.7906 37.741 13.4087 37.741 13.0465 37.8392C12.871 37.9026 12.7119 38.0048 12.5812 38.138C12.4505 38.2712 12.3514 38.4322 12.2914 38.6089C12.1736 38.8663 12.1223 39.149 12.1421 39.4314C12.1954 39.7805 12.3669 40.1008 12.628 40.3387C13.0659 40.7509 13.5798 41.0739 14.1411 41.2898C14.6649 41.5483 15.2374 41.6929 15.8211 41.7142C16.1505 41.7362 16.4785 41.6542 16.7589 41.4799C17.0393 41.3056 17.2579 41.0477 17.384 40.7425C17.4918 40.5085 17.5294 40.2483 17.4922 39.9933C17.4512 39.7457 17.3508 39.5117 17.1996 39.3114C17.0384 39.0949 16.8403 38.9086 16.6142 38.7611C16.5757 38.7345 16.5493 38.6938 16.5405 38.6478C16.5318 38.6018 16.5414 38.5542 16.5674 38.5153C16.5963 38.4566 16.6349 38.4032 16.6815 38.3572C16.7381 38.2987 16.7849 38.2782 16.822 38.2958L17.9664 38.928C18.0074 38.9514 18.0337 39.0684 18.0513 39.2792C18.0639 39.5318 18.0482 39.7851 18.0044 40.0343C17.9574 40.337 17.8708 40.6322 17.7469 40.9123C17.5237 41.446 17.2043 41.9341 16.8045 42.3523V42.3523Z" fill="#F5EEE3"/>
<path d="M19.8165 36.4138C19.7663 36.4114 19.7177 36.3952 19.676 36.367C19.6423 36.3475 19.6157 36.3178 19.5999 36.2821C19.592 36.2406 19.6004 36.1976 19.6233 36.1621C19.6969 36.0341 19.7483 35.8946 19.7755 35.7495C19.7989 35.609 19.7755 35.5183 19.7024 35.4568L15.88 32.9076C15.8423 32.8792 15.7994 32.8586 15.7536 32.847C15.7079 32.8355 15.6603 32.8332 15.6137 32.8403C15.5298 32.8605 15.453 32.903 15.3913 32.9632C15.3118 33.0434 15.2384 33.1295 15.1717 33.2207C15.1483 33.2581 15.1134 33.2868 15.0722 33.3027C15.0294 33.3046 14.9875 33.2899 14.9552 33.2617C14.9151 33.2311 14.8821 33.1922 14.8586 33.1476C14.8463 33.1283 14.8398 33.106 14.8398 33.0832C14.8398 33.0604 14.8463 33.038 14.8586 33.0188L16.4888 30.575C16.5029 30.5565 16.5219 30.5426 16.5438 30.5348C16.5656 30.527 16.5892 30.5257 16.6117 30.531C16.6612 30.5349 16.7093 30.5499 16.7522 30.575C16.84 30.6335 16.8576 30.7008 16.8049 30.7798C16.6805 30.9466 16.5909 31.1367 16.5415 31.3388C16.5244 31.4047 16.5288 31.4743 16.554 31.5375C16.5793 31.6007 16.6241 31.6541 16.682 31.69L20.4575 34.2188C20.4941 34.2509 20.5382 34.2733 20.5858 34.284C20.6333 34.2948 20.6828 34.2935 20.7297 34.2802C20.8182 34.2364 20.8916 34.1671 20.9404 34.0812L21.593 33.1037C21.6291 33.0353 21.6504 32.9601 21.6554 32.8829C21.6605 32.8057 21.6492 32.7284 21.6223 32.6559C21.5629 32.44 21.4763 32.2325 21.3648 32.0383C21.2448 31.8288 21.1098 31.6283 20.9609 31.4383C20.947 31.4122 20.9398 31.3831 20.9398 31.3535C20.9398 31.3239 20.947 31.2947 20.9609 31.2686C20.9783 31.2013 21.0059 31.1372 21.0428 31.0784C21.0766 31.0288 21.1205 30.9869 21.1716 30.9554C21.19 30.9412 21.2127 30.9335 21.236 30.9335C21.2593 30.9335 21.2819 30.9412 21.3004 30.9554L22.7257 32.211L19.9511 36.3729C19.9362 36.3934 19.915 36.4085 19.8907 36.4158C19.8664 36.4232 19.8404 36.4225 19.8165 36.4138Z" fill="#F5EEE3"/>
<path d="M28.5068 25.292C28.5331 25.292 28.5682 25.3124 28.6151 25.3534C28.6486 25.3904 28.6736 25.4344 28.6882 25.4822C28.698 25.5031 28.7015 25.5263 28.6984 25.5492C28.6953 25.572 28.6857 25.5935 28.6707 25.611L26.8239 27.5339C26.807 27.5498 26.7858 27.5605 26.763 27.5647C26.7401 27.5688 26.7165 27.5663 26.6951 27.5573C26.6472 27.546 26.6029 27.5229 26.5663 27.49C26.5362 27.4638 26.5148 27.4291 26.5049 27.3904C26.5054 27.3484 26.5209 27.3079 26.5488 27.2763L26.6629 27.1475C26.7312 27.0772 26.7929 27.0008 26.8473 26.9192C26.8623 26.9035 26.8707 26.8825 26.8707 26.8607C26.8707 26.8389 26.8623 26.8179 26.8473 26.8022C26.8306 26.7856 26.8107 26.7726 26.7888 26.7641L25.3488 26.1261L23.9235 27.5895L24.6259 29.0002C24.6335 29.0177 24.6444 29.0336 24.6581 29.047C24.6932 29.0821 24.743 29.0792 24.8044 29.047C24.8951 28.9776 24.9802 28.9013 25.0591 28.8187L25.1908 28.6929C25.2052 28.678 25.2225 28.6662 25.2416 28.6582C25.2607 28.6501 25.2813 28.646 25.302 28.646C25.3407 28.6521 25.376 28.6718 25.4015 28.7016C25.4361 28.7368 25.4613 28.78 25.4747 28.8275C25.4875 28.847 25.4943 28.8699 25.4943 28.8933C25.4943 28.9167 25.4875 28.9396 25.4747 28.9592L24.1986 30.2675C24.183 30.2835 24.1633 30.295 24.1416 30.3007C24.12 30.3063 24.0972 30.306 24.0757 30.2996C24.0238 30.2854 23.9765 30.2582 23.9381 30.2206C23.8942 30.1767 23.8708 30.1416 23.8708 30.1153C23.8784 30.0707 23.8999 30.0297 23.9323 29.9982C23.9551 29.9696 23.9796 29.9422 24.0054 29.9162C24.056 29.8605 24.102 29.8008 24.143 29.7377C24.1784 29.6803 24.1986 29.6148 24.2015 29.5475C24.2053 29.4602 24.1861 29.3734 24.1459 29.2958L21.626 24.0276L22.3196 23.3047L27.6756 25.6227C27.7557 25.6608 27.8449 25.676 27.9331 25.6666C28.0032 25.6554 28.0695 25.6273 28.1263 25.5846C28.1885 25.5362 28.2481 25.4844 28.3048 25.4295C28.3318 25.398 28.3611 25.3687 28.3926 25.3417C28.4424 25.3124 28.4775 25.292 28.5068 25.292ZM22.4923 24.6803L23.7391 27.2617L24.9888 25.9593L22.4923 24.6803Z" fill="#F5EEE3"/>
<path d="M31.9895 15.5638C32.0298 15.5751 32.0656 15.5986 32.0919 15.6311C32.1271 15.6838 32.1446 15.7218 32.1388 15.7482C32.1227 15.7892 32.0953 15.8247 32.0597 15.8506C31.9778 15.9238 31.9163 15.9823 31.8724 16.0292C31.825 16.0867 31.7901 16.1535 31.77 16.2252C31.7447 16.3207 31.7387 16.4202 31.7524 16.5179L32.1475 20.03L33.0753 21.3178C33.0954 21.3516 33.123 21.3803 33.156 21.4016C33.189 21.4229 33.2265 21.4363 33.2656 21.4407C33.3395 21.4463 33.4135 21.4311 33.4792 21.3968C33.5694 21.35 33.6565 21.2972 33.7397 21.2388C33.7953 21.1978 33.8392 21.1715 33.8655 21.1539C33.91 21.1256 33.9598 21.1066 34.0119 21.0983C34.047 21.0983 34.0821 21.1217 34.1172 21.1685C34.1452 21.2094 34.1623 21.2568 34.167 21.3061C34.1734 21.3283 34.173 21.352 34.1656 21.3739C34.1583 21.3959 34.1445 21.4151 34.126 21.429L31.7115 23.1851C31.6916 23.1972 31.6688 23.2037 31.6456 23.2037C31.6224 23.2037 31.5996 23.1972 31.5797 23.1851C31.5339 23.1662 31.4944 23.1347 31.4656 23.0943C31.453 23.0779 31.4446 23.0587 31.441 23.0383C31.4375 23.0179 31.4389 22.997 31.4451 22.9773C31.4576 22.9304 31.4842 22.8886 31.5212 22.8573L31.6441 22.7578C31.7542 22.6793 31.8528 22.5857 31.9368 22.4797C31.9673 22.4438 31.9841 22.3981 31.9841 22.3509C31.9841 22.3038 31.9673 22.2581 31.9368 22.2222L31.0032 20.9256L27.6316 19.5032C27.5336 19.4609 27.428 19.439 27.3213 19.4388C27.2432 19.4392 27.1658 19.4541 27.093 19.4827C27.0316 19.5091 26.9555 19.55 26.8589 19.6027C26.824 19.6288 26.7823 19.644 26.7389 19.6466C26.7096 19.6466 26.6774 19.6144 26.6423 19.5647C26.6176 19.5308 26.6053 19.4895 26.6072 19.4476C26.6048 19.4263 26.6082 19.4048 26.6169 19.3852C26.6257 19.3657 26.6395 19.3488 26.6569 19.3364L29.1096 17.5803C29.1263 17.5672 29.1464 17.5589 29.1675 17.5563C29.1887 17.5538 29.2101 17.557 29.2296 17.5657C29.2697 17.5789 29.3045 17.6045 29.3291 17.6389C29.3555 17.6688 29.37 17.7073 29.37 17.7472C29.3676 17.7676 29.3608 17.7873 29.3502 17.8049C29.3397 17.8226 29.3255 17.8378 29.3086 17.8496L29.2179 17.9198L28.9047 18.1803C28.8536 18.2193 28.8108 18.268 28.7788 18.3237C28.7682 18.3409 28.7626 18.3606 28.7626 18.3808C28.7626 18.401 28.7682 18.4207 28.7788 18.4379C28.8035 18.4622 28.8336 18.4803 28.8666 18.4906L28.9427 18.5257L31.6354 19.8252L31.2695 16.7667C31.2675 16.733 31.2586 16.7001 31.2432 16.6701C31.2139 16.6291 31.1495 16.6291 31.05 16.6701C30.8996 16.7383 30.7539 16.8165 30.6139 16.9043C30.5976 16.917 30.5786 16.926 30.5583 16.9306C30.5381 16.9351 30.5171 16.9351 30.4968 16.9306C30.459 16.9175 30.427 16.8916 30.4061 16.8574C30.3822 16.823 30.369 16.7823 30.3681 16.7404C30.3663 16.7188 30.3702 16.6972 30.3795 16.6777C30.3887 16.6582 30.403 16.6414 30.4208 16.6291L31.8636 15.5901C31.8798 15.5739 31.9003 15.5628 31.9226 15.5581C31.945 15.5535 31.9682 15.5554 31.9895 15.5638V15.5638Z" fill="#F5EEE3"/>
<path d="M41.4369 17.3196C41.3982 17.2886 41.3679 17.2483 41.3491 17.2025C41.3363 17.1645 41.3363 17.1234 41.3491 17.0854C41.3574 17.0665 41.3694 17.0495 41.3845 17.0354C41.3996 17.0213 41.4174 17.0105 41.4369 17.0035C41.7676 16.8513 41.9051 16.7108 41.8525 16.5557L40.2398 12.2065C40.2261 12.1618 40.2035 12.1203 40.1733 12.0846C40.1432 12.0489 40.106 12.0197 40.0642 11.9987C39.9927 11.9667 39.9135 11.9555 39.8359 11.9665C39.7598 11.9665 39.6545 11.9987 39.5198 12.0309C39.4781 12.045 39.4328 12.045 39.3911 12.0309C39.3657 12.0309 39.3423 11.9958 39.3208 11.9256C39.3084 11.8776 39.3084 11.8272 39.3208 11.7792C39.321 11.7564 39.3277 11.734 39.3401 11.7148C39.3526 11.6956 39.3702 11.6804 39.3911 11.6709L40.5618 11.2319C40.7871 11.147 41.0915 11.027 41.472 10.869L42.1481 10.5968C43.629 10.0505 44.5783 10.3373 44.9958 11.4573C45.1293 11.7926 45.1668 12.1584 45.1041 12.5138C45.0241 12.8702 44.836 13.1932 44.5656 13.4387C44.2038 13.766 43.7783 14.0151 43.3158 14.1704L42.5812 14.4426L43.1402 15.9264C43.1603 15.976 43.1935 16.0191 43.2364 16.0511C43.2792 16.0831 43.33 16.1027 43.3832 16.1079C43.5072 16.128 43.6337 16.128 43.7578 16.1079C43.8836 16.0786 44.0505 16.0377 44.2173 15.985C44.2591 15.9709 44.3043 15.9709 44.3461 15.985C44.3724 15.985 44.3958 16.0289 44.4163 16.0874C44.4287 16.1354 44.4287 16.1858 44.4163 16.2337C44.4154 16.2568 44.4084 16.2792 44.3961 16.2987C44.3837 16.3183 44.3665 16.3342 44.3461 16.345L41.5598 17.3547C41.5381 17.3614 41.5149 17.3616 41.4931 17.3554C41.4713 17.3492 41.4517 17.3367 41.4369 17.3196V17.3196ZM43.6085 13.2719C43.6785 13.0828 43.7091 12.8815 43.6986 12.6802C43.688 12.4789 43.6364 12.2818 43.5471 12.1012C43.4534 11.81 43.3044 11.5396 43.108 11.3051C42.9759 11.1428 42.786 11.0379 42.5783 11.0124C42.339 11.0019 42.1002 11.0438 41.8788 11.1353L41.4369 11.2992L42.4378 14.0533L42.8798 13.8894C43.0359 13.8396 43.1807 13.7594 43.3058 13.6534C43.4308 13.5474 43.5337 13.4177 43.6085 13.2719Z" fill="#F5EEE3"/>
<path d="M50.4066 14.2785C49.8946 14.0894 49.4462 13.7597 49.113 13.3273C48.7726 12.8809 48.5484 12.3569 48.4603 11.8025C48.3629 11.2535 48.4051 10.6889 48.5833 10.1606C48.757 9.65121 49.0703 9.20093 49.4876 8.86109C49.9576 8.50489 50.5064 8.26707 51.0876 8.16773C51.6689 8.06839 52.2655 8.11046 52.8271 8.29037C53.3353 8.47192 53.7817 8.79357 54.1148 9.21815C54.4495 9.66537 54.6727 10.186 54.7658 10.7367C54.859 11.2875 54.8194 11.8525 54.6504 12.3849C54.4797 12.9031 54.1662 13.3626 53.7461 13.7107C53.2822 14.0744 52.7351 14.3167 52.1541 14.4159C51.5731 14.515 50.9765 14.4678 50.4183 14.2785H50.4066ZM53.1139 13.1078C53.2842 12.4216 53.2923 11.7051 53.1373 11.0152C53.057 10.3167 52.809 9.64792 52.4144 9.06596C52.2682 8.87345 52.0721 8.72466 51.8474 8.63575C51.6226 8.54684 51.3778 8.5212 51.1395 8.56162C50.9012 8.60204 50.6785 8.70698 50.4957 8.86503C50.3128 9.02308 50.1767 9.22821 50.1022 9.45815C49.9304 10.1391 49.9214 10.851 50.0759 11.5361C50.1591 12.2385 50.4089 12.9109 50.8047 13.4971C50.9454 13.6996 51.1423 13.8566 51.3711 13.9486C51.5999 14.0407 51.8507 14.0638 52.0924 14.0151C52.3335 13.9823 52.5593 13.8784 52.7412 13.7169C52.9231 13.5553 53.0528 13.3433 53.1139 13.1078V13.1078Z" fill="#F5EEE3"/>
<path d="M58.9451 13.5321C58.9217 13.4888 58.9087 13.4407 58.9071 13.3916C58.9042 13.3519 58.9156 13.3124 58.9393 13.2804C58.9536 13.2654 58.9709 13.2535 58.99 13.2455C59.0092 13.2374 59.0297 13.2334 59.0505 13.2335C59.2664 13.2287 59.4808 13.1963 59.6885 13.137C59.7583 13.1264 59.8219 13.0909 59.8676 13.0371C59.9134 12.9834 59.9381 12.9149 59.9373 12.8443L59.9988 7.96245H58.9276C58.8481 7.96487 58.771 7.99018 58.7056 8.03535C58.6402 8.08052 58.5892 8.14363 58.5588 8.21708C58.456 8.39949 58.3829 8.59707 58.3422 8.80243C58.299 8.97966 58.2678 9.15957 58.2486 9.34096C58.2459 9.36478 58.2365 9.38735 58.2215 9.40601C58.2064 9.42468 58.1864 9.43866 58.1637 9.44632C58.1131 9.46901 58.0581 9.48001 58.0027 9.47851C57.9534 9.47572 57.9053 9.46171 57.8622 9.43754C57.8407 9.42834 57.8222 9.41333 57.8088 9.39421C57.7954 9.37508 57.7875 9.35259 57.7861 9.32925C57.8066 8.90194 57.83 8.49512 57.8564 8.11172C57.8473 7.91322 57.8751 7.71475 57.9383 7.52637L63.4553 7.59954C63.4845 7.59954 63.5079 7.7927 63.5255 8.18489C63.5431 8.57707 63.5518 8.97804 63.5606 9.40535C63.5592 9.4287 63.5509 9.45112 63.5369 9.46984C63.5228 9.48856 63.5036 9.50276 63.4816 9.51071C63.4387 9.53502 63.3904 9.54811 63.3411 9.54876C63.2855 9.54934 63.2305 9.53733 63.1801 9.51364C63.1581 9.50447 63.1389 9.48961 63.1245 9.47058C63.1101 9.45155 63.101 9.42904 63.0982 9.40535C63.0684 9.09254 63.0066 8.78361 62.9138 8.48342C62.8202 8.19074 62.668 8.02099 62.4572 8.02099L61.4416 8.00636L61.3773 12.8706C61.3742 12.9215 61.3845 12.9723 61.407 13.018C61.4296 13.0637 61.4637 13.1027 61.506 13.1311C61.5946 13.1896 61.6942 13.2294 61.7987 13.2482C61.9411 13.2725 62.0847 13.2891 62.2289 13.2979C62.2725 13.3001 62.3147 13.3132 62.3519 13.336C62.3763 13.372 62.3867 13.4157 62.3811 13.4589C62.3767 13.5033 62.3627 13.5462 62.3402 13.5848C62.3321 13.6064 62.3178 13.6252 62.299 13.6388C62.2803 13.6523 62.2579 13.66 62.2348 13.6609L59.0417 13.6199C59.0189 13.6161 58.9976 13.6058 58.9804 13.5903C58.9633 13.5747 58.951 13.5545 58.9451 13.5321Z" fill="#F5EEE3"/>
<path d="M72.0185 15.2415C71.8713 15.1583 71.7287 15.0674 71.5911 14.9693L71.4185 14.8405C71.3699 14.8059 71.3239 14.7677 71.2809 14.7264L71.2341 14.6883C71.2155 14.6691 71.1924 14.655 71.1668 14.6473C71.1404 14.6369 71.1111 14.6369 71.0848 14.6473C71.0522 14.661 71.0208 14.6777 70.9912 14.6971C70.9332 14.7369 70.8688 14.7666 70.8009 14.7849C70.7481 14.7981 70.6928 14.7981 70.6399 14.7849C70.5767 14.7708 70.5212 14.7331 70.4848 14.6795C70.4697 14.6564 70.4602 14.6301 70.4571 14.6026C70.4541 14.5751 70.4576 14.5473 70.4673 14.5215C70.4907 14.4629 70.5082 14.4015 70.5287 14.3371L70.5726 14.1732C70.6253 13.9888 70.6721 13.8015 70.7102 13.6113C70.7482 13.421 70.7746 13.3186 70.7804 13.2776C70.8126 13.1049 70.839 12.9849 70.8565 12.9205C70.9092 12.7274 71.0175 12.6542 71.1755 12.6981C71.2326 12.7079 71.2844 12.7377 71.3214 12.7823C71.3584 12.8268 71.3783 12.8831 71.3775 12.941C71.3775 13.0669 71.3775 13.1898 71.3775 13.3157C71.3913 13.4539 71.4158 13.5909 71.4507 13.7254C71.5384 14.0602 71.7096 14.3673 71.9482 14.6181C72.1873 14.8718 72.4907 15.0559 72.8262 15.1507C72.9792 15.1945 73.1392 15.2085 73.2975 15.1917C73.4432 15.1793 73.5823 15.1255 73.6984 15.0366C73.817 14.9424 73.9013 14.8118 73.9384 14.6649C74.0009 14.4596 73.9937 14.2393 73.9179 14.0386C73.8418 13.8413 73.733 13.6582 73.596 13.4971C73.4108 13.2924 73.2154 13.097 73.0106 12.9118L72.7882 12.701C72.4955 12.4084 72.2526 12.1742 72.0858 11.9781C71.9165 11.7696 71.7875 11.5314 71.7053 11.2757C71.6157 10.9959 71.6157 10.6951 71.7053 10.4152C71.7849 10.1075 71.9614 9.83349 72.2087 9.63379C72.4704 9.43038 72.7835 9.30372 73.1131 9.26795C73.4975 9.22399 73.8869 9.25884 74.2574 9.37038C74.4376 9.41743 74.613 9.48112 74.7813 9.56062C74.9172 9.62753 75.0482 9.70381 75.1735 9.78891C75.2081 9.81464 75.2442 9.8381 75.2818 9.85915C75.3331 9.89039 75.3882 9.91498 75.4457 9.93232C75.4774 9.94037 75.5106 9.94037 75.5423 9.93232C75.5713 9.92661 75.5991 9.9157 75.6242 9.90013C75.647 9.88538 75.6716 9.87358 75.6974 9.86501C75.7376 9.85346 75.7802 9.85346 75.8203 9.86501C75.8905 9.88407 75.9549 9.92027 76.0076 9.97037C76.0603 10.0172 76.0808 10.064 76.0691 10.105C76.034 10.2455 75.9959 10.4211 75.9579 10.6347C75.9198 10.8484 75.8935 10.983 75.8818 11.0445C75.8668 11.1656 75.8453 11.2857 75.8174 11.4045C75.8113 11.4396 75.797 11.4727 75.7756 11.5012C75.7543 11.5297 75.7265 11.5527 75.6945 11.5684C75.6284 11.5931 75.5557 11.5931 75.4896 11.5684C75.449 11.5612 75.411 11.5434 75.3796 11.5166C75.3482 11.4898 75.3245 11.4552 75.3111 11.4162C75.3579 11.6562 75.3608 11.5859 75.3111 11.2055C75.2895 10.8735 75.1891 10.5515 75.0184 10.266C74.8256 9.99512 74.5385 9.80616 74.2135 9.73623C73.9653 9.65729 73.7003 9.64718 73.4467 9.70696C73.3372 9.73514 73.2378 9.79338 73.1597 9.8751C73.0816 9.95682 73.028 10.0588 73.0048 10.1694C72.9464 10.3777 72.9651 10.6001 73.0575 10.7957C73.1547 11.0113 73.2873 11.2091 73.4496 11.3811C73.6165 11.5625 73.836 11.7733 74.1052 12.0191C74.3788 12.2601 74.6378 12.5171 74.8808 12.7888C75.0742 13.0133 75.2267 13.2698 75.3316 13.5469C75.4367 13.8287 75.446 14.1373 75.3579 14.4249C75.2732 14.7504 75.0801 15.0373 74.8106 15.2385C74.5313 15.4475 74.2005 15.577 73.8535 15.6132C73.4685 15.6588 73.0782 15.626 72.7062 15.5166C72.4668 15.4528 72.2359 15.3604 72.0185 15.2415V15.2415Z" fill="#F5EEE3"/>
<path d="M78.376 17.2813C78.372 17.2313 78.38 17.1812 78.3994 17.135C78.4143 17.098 78.4411 17.0671 78.4755 17.0472C78.514 17.0314 78.5571 17.0314 78.5955 17.0472C78.7936 17.1331 79.0023 17.1922 79.216 17.2228C79.2844 17.2399 79.3567 17.233 79.4207 17.2032C79.4846 17.1733 79.5364 17.1224 79.5672 17.0589L81.6569 12.6541L80.6881 12.1975C80.6148 12.1673 80.5344 12.1584 80.4562 12.1719C80.378 12.1854 80.3052 12.2206 80.2462 12.2736C80.0778 12.3948 79.9288 12.5408 79.8043 12.7068C79.6921 12.8501 79.5894 13.0007 79.4969 13.1575C79.4851 13.1783 79.4674 13.1952 79.4461 13.2061C79.4248 13.2171 79.4008 13.2215 79.377 13.219C79.321 13.2193 79.2658 13.2062 79.216 13.1809C79.1713 13.1587 79.133 13.1255 79.1048 13.0843C79.0891 13.0679 79.0785 13.0472 79.0743 13.0249C79.0702 13.0025 79.0726 12.9795 79.0814 12.9585C79.2774 12.5751 79.4677 12.2151 79.6491 11.8785C79.8306 11.5419 79.9418 11.3751 79.9652 11.3868L84.9407 13.7458C84.967 13.7458 84.9085 13.9419 84.7622 14.2989C84.6158 14.656 84.4695 15.0306 84.291 15.4257C84.2788 15.4456 84.2615 15.4618 84.2409 15.4726C84.2203 15.4835 84.1971 15.4885 84.1739 15.4872C84.1249 15.491 84.0757 15.4829 84.0305 15.4638C83.9797 15.4408 83.9347 15.4068 83.8988 15.3643C83.8825 15.3464 83.8712 15.3245 83.8661 15.3009C83.8609 15.2772 83.8621 15.2527 83.8695 15.2296C83.9709 14.9331 84.0425 14.6272 84.0832 14.3165C84.1271 13.9975 84.051 13.7955 83.8607 13.7048L82.9417 13.2716L80.8637 17.6618C80.8381 17.7063 80.8245 17.7567 80.8245 17.8081C80.8245 17.8595 80.8381 17.91 80.8637 17.9544C80.9227 18.0467 81.0005 18.1255 81.092 18.1857C81.2101 18.2668 81.3322 18.3421 81.4579 18.411C81.4985 18.4291 81.5331 18.4586 81.5574 18.4959C81.5633 18.5387 81.554 18.5822 81.531 18.6188C81.5089 18.6635 81.4756 18.7018 81.4345 18.73C81.4178 18.7463 81.3966 18.7573 81.3736 18.7614C81.3507 18.7656 81.327 18.7628 81.3057 18.7535L78.4375 17.3896C78.4183 17.3789 78.4024 17.3631 78.3916 17.344C78.3808 17.3249 78.3754 17.3032 78.376 17.2813V17.2813Z" fill="#F5EEE3"/>
<path d="M89.6313 22.9502C89.2831 23.1246 88.8906 23.1908 88.5045 23.1404C88.0786 23.0757 87.6759 22.9046 87.3338 22.6429C86.712 22.2452 86.2372 21.6553 85.9816 20.9629C85.7982 20.36 85.9679 19.6996 86.4909 18.9815L88.2176 16.5991C88.2482 16.5636 88.2711 16.5221 88.2847 16.4772C88.2983 16.4324 88.3024 16.3852 88.2967 16.3387C88.2835 16.2577 88.2469 16.1824 88.1913 16.1221C88.1214 16.0457 88.0471 15.9733 87.9689 15.9055C87.9327 15.8802 87.9051 15.8445 87.8898 15.8031C87.8898 15.7767 87.8898 15.7387 87.9367 15.6889C87.9665 15.6495 88.0057 15.6183 88.0508 15.5982C88.0706 15.586 88.0934 15.5796 88.1167 15.5796C88.1399 15.5796 88.1627 15.586 88.1825 15.5982L90.3864 17.1933C90.4037 17.208 90.4165 17.2274 90.4233 17.2492C90.43 17.271 90.4304 17.2942 90.4244 17.3162C90.4198 17.3655 90.4026 17.4129 90.3747 17.4538C90.3535 17.4888 90.3202 17.5149 90.281 17.5269C90.2612 17.5312 90.2407 17.5311 90.221 17.5265C90.2013 17.522 90.1828 17.5131 90.1669 17.5006C90.0321 17.4146 89.8877 17.3449 89.7366 17.2928C89.6079 17.2489 89.5171 17.2635 89.4674 17.3338L87.5972 19.9122C87.3584 20.2199 87.1725 20.565 87.0469 20.9337C86.9572 21.1844 86.9572 21.4585 87.0469 21.7093C87.1629 21.961 87.3462 22.1758 87.5767 22.3297C87.8574 22.5482 88.1965 22.6785 88.5513 22.7044C88.8645 22.7179 89.1748 22.6396 89.444 22.479C89.7188 22.3085 89.9567 22.0846 90.1435 21.8205L91.9785 19.2859C92.0107 19.2324 92.0249 19.1701 92.0191 19.1079C92.0133 19.0458 91.9878 18.9872 91.9463 18.9405C91.8476 18.7953 91.7338 18.6609 91.6068 18.5396C91.5719 18.513 91.5447 18.4777 91.5278 18.4371C91.5281 18.3936 91.5448 18.3518 91.5747 18.3201C91.606 18.2811 91.6461 18.25 91.6917 18.2293C91.711 18.2171 91.7333 18.2106 91.7561 18.2106C91.7789 18.2106 91.8013 18.2171 91.8205 18.2293L93.4448 19.4001C93.4622 19.4155 93.4749 19.4354 93.4816 19.4576C93.4883 19.4798 93.4888 19.5035 93.4829 19.5259C93.4782 19.5752 93.4611 19.6226 93.4331 19.6635C93.412 19.6985 93.3786 19.7246 93.3395 19.7366C93.3197 19.7402 93.2993 19.7396 93.2797 19.7351C93.2601 19.7306 93.2416 19.7221 93.2253 19.7103C93.0787 19.6012 92.9081 19.529 92.7278 19.4996C92.6644 19.4905 92.5997 19.499 92.5408 19.5243C92.4819 19.5496 92.4312 19.5907 92.3941 19.643L90.5942 22.119C90.347 22.4716 90.0161 22.7572 89.6313 22.9502V22.9502Z" fill="#F5EEE3"/>
<path d="M92.0546 26.1698C92.0688 26.1221 92.095 26.0788 92.1307 26.044C92.1582 26.0158 92.1941 25.9973 92.2331 25.9913C92.2537 25.9914 92.274 25.9958 92.2927 26.0044C92.3113 26.013 92.328 26.0255 92.3414 26.0411C92.4507 26.1426 92.5715 26.231 92.7014 26.3045C92.8155 26.3659 92.9033 26.3689 92.9648 26.3045L96.3686 23.1524C96.4056 23.1228 96.4355 23.0855 96.4563 23.0429C96.4771 23.0004 96.4881 22.9538 96.4886 22.9065C96.4864 22.824 96.4633 22.7434 96.4213 22.6724C96.3636 22.5712 96.3001 22.4735 96.2311 22.3797C96.2009 22.3469 96.1807 22.3064 96.1725 22.2626C96.1725 22.2353 96.1959 22.2002 96.2428 22.1573C96.2808 22.1255 96.326 22.1034 96.3745 22.0929C96.3958 22.0835 96.4195 22.0807 96.4424 22.0849C96.4654 22.0891 96.4866 22.1 96.5032 22.1163L98.5315 24.3055C98.9896 24.7864 99.3249 25.3707 99.509 26.0089C99.6597 26.5299 99.6597 27.0829 99.509 27.604C99.3687 28.0879 99.0984 28.5242 98.7276 28.8654C98.285 29.3052 97.7161 29.5959 97.1003 29.6966C96.5552 29.7815 95.9974 29.7188 95.4847 29.5151C95.0196 29.3359 94.5998 29.0561 94.2555 28.6956L92.0487 26.3103C92.0339 26.2896 92.0264 26.2645 92.0274 26.2391C92.0285 26.2136 92.0381 26.1892 92.0546 26.1698V26.1698ZM93.9833 27.604C94.085 27.8161 94.2238 28.0083 94.393 28.1717C94.6127 28.4236 94.8857 28.6236 95.1921 28.7571C95.5146 28.8528 95.8617 28.8203 96.1608 28.6664C96.6944 28.4023 97.1809 28.0523 97.6008 27.6303C98.0051 27.2858 98.339 26.8664 98.5842 26.3952C98.7405 26.0934 98.7841 25.7458 98.7071 25.4147C98.6097 25.0982 98.4369 24.8099 98.2037 24.5748L97.6183 23.9543L93.9979 27.3405C93.9482 27.3874 93.9482 27.481 93.9833 27.6157V27.604Z" fill="#F5EEE3"/>
<path d="M98.0755 33.2409C98.0982 33.1966 98.1313 33.1584 98.1721 33.1297C98.2024 33.1044 98.2409 33.0909 98.2804 33.0917C98.3217 33.1006 98.3582 33.1246 98.3828 33.159C98.4726 33.2778 98.5768 33.3849 98.693 33.478C98.7955 33.557 98.8833 33.5717 98.9535 33.5248L102.823 30.9669C102.865 30.9451 102.902 30.9132 102.93 30.8739C102.957 30.8346 102.975 30.7891 102.981 30.7415C102.992 30.6555 102.982 30.5681 102.951 30.4869C102.91 30.3867 102.863 30.289 102.811 30.1942C102.785 30.1587 102.771 30.1154 102.773 30.0713C102.773 30.042 102.805 30.0127 102.858 29.9776C102.9 29.9513 102.948 29.9361 102.998 29.9337C103.021 29.9291 103.044 29.9307 103.066 29.9385C103.088 29.9462 103.107 29.9598 103.121 29.9776L104.623 32.2488C104.636 32.2677 104.643 32.2902 104.643 32.3132C104.643 32.3361 104.636 32.3586 104.623 32.3776C104.601 32.4233 104.568 32.4627 104.526 32.4917C104.495 32.5155 104.457 32.5279 104.418 32.5268C104.397 32.5233 104.378 32.5155 104.361 32.5038C104.344 32.4922 104.329 32.4771 104.318 32.4595C104.061 32.1317 103.87 32.0088 103.733 32.0937L99.8696 34.6575C99.8277 34.6804 99.7916 34.7126 99.7642 34.7517C99.7368 34.7908 99.7188 34.8357 99.7115 34.8829C99.7001 34.9691 99.7112 35.0568 99.7437 35.1375C99.7849 35.2377 99.8318 35.3354 99.8842 35.4302C99.9077 35.467 99.9209 35.5094 99.9223 35.5531C99.9223 35.5824 99.8871 35.6116 99.8345 35.6467C99.793 35.6726 99.7457 35.6877 99.6969 35.6906C99.6744 35.696 99.6508 35.6947 99.6289 35.6869C99.6071 35.6791 99.5881 35.6651 99.574 35.6467L98.0696 33.3756C98.057 33.3551 98.0508 33.3314 98.0519 33.3074C98.0529 33.2834 98.0611 33.2602 98.0755 33.2409V33.2409Z" fill="#F5EEE3"/>
<path d="M102.018 39.3935C102.07 38.8528 102.273 38.3376 102.603 37.9067C102.949 37.4633 103.399 37.1132 103.914 36.8882C104.42 36.6574 104.975 36.5568 105.53 36.5955C106.068 36.6329 106.584 36.8238 107.017 37.1457C107.479 37.5086 107.848 37.977 108.092 38.5117C108.336 39.0464 108.448 39.6318 108.419 40.2188C108.368 40.757 108.165 41.2696 107.833 41.6968C107.485 42.1331 107.038 42.4802 106.529 42.7092C106.02 42.9383 105.464 43.0427 104.907 43.0139C104.362 42.977 103.838 42.7896 103.393 42.4724C102.925 42.1138 102.553 41.6444 102.311 41.1065C102.069 40.5686 101.964 39.9789 102.006 39.3905L102.018 39.3935ZM103.832 41.7349C104.54 41.7253 105.235 41.5519 105.864 41.2285C106.518 40.9736 107.102 40.5662 107.567 40.0403C107.725 39.8533 107.824 39.6244 107.854 39.3817C107.884 39.139 107.842 38.8929 107.734 38.6735C107.642 38.4486 107.487 38.2555 107.286 38.1181C107.086 37.9808 106.85 37.9052 106.607 37.9008C105.196 37.9839 103.866 38.5878 102.875 39.5954C102.714 39.7822 102.612 40.012 102.58 40.2565C102.548 40.5009 102.589 40.7493 102.697 40.971C102.791 41.1943 102.949 41.3849 103.151 41.5187C103.353 41.6526 103.59 41.7237 103.832 41.7232V41.7349Z" fill="#F5EEE3"/>
<path d="M23.9989 96.6786C24.0059 96.6485 24.0199 96.6204 24.0399 96.5967C24.0558 96.5772 24.0772 96.5629 24.1013 96.5557C24.1282 96.5551 24.1542 96.5645 24.1745 96.582C24.2482 96.6421 24.3288 96.6932 24.4145 96.7342C24.4387 96.7521 24.4679 96.7617 24.4979 96.7617C24.5279 96.7617 24.5572 96.7521 24.5813 96.7342L26.5745 94.5743C26.5957 94.5541 26.6122 94.5294 26.6229 94.5021C26.6335 94.4748 26.6379 94.4455 26.6359 94.4162C26.6319 94.3636 26.6137 94.313 26.5832 94.2699C26.554 94.2289 26.5101 94.1733 26.4486 94.1031C26.428 94.0833 26.4137 94.0578 26.4076 94.0299C26.4076 94.0153 26.4076 93.9918 26.4457 93.9626C26.467 93.9392 26.4944 93.922 26.5247 93.9128C26.5371 93.9053 26.5512 93.9014 26.5657 93.9014C26.5801 93.9014 26.5943 93.9053 26.6067 93.9128L27.8037 95.0074C28.1063 95.2671 28.3363 95.6009 28.471 95.9762C28.5658 96.2782 28.5658 96.602 28.471 96.904C28.357 97.2381 28.1679 97.5416 27.9183 97.7913C27.6687 98.0409 27.3651 98.23 27.031 98.344C26.7161 98.4405 26.3804 98.4466 26.0623 98.3615C25.7714 98.2835 25.5034 98.137 25.2808 97.9342L24.0077 96.7635C23.9975 96.752 23.9912 96.7377 23.9896 96.7225C23.9881 96.7072 23.9913 96.6919 23.9989 96.6786ZM25.0379 97.264C25.1137 97.3942 25.2129 97.5094 25.3306 97.6035C25.4993 97.7677 25.698 97.8979 25.9159 97.9869C26.1433 98.0617 26.3902 98.0502 26.6096 97.9547C26.9494 97.7957 27.2494 97.5627 27.4876 97.2728C27.8973 96.8279 28.0817 96.4298 28.0408 96.0786C27.9933 95.7177 27.8152 95.3866 27.5403 95.1479L27.1481 94.785L25.0203 97.0854C24.9999 97.1176 25.0028 97.1762 25.0379 97.2581V97.264Z" fill="#F5EEE3"/>
<path d="M28.3512 100.307C28.3779 100.304 28.4047 100.311 28.4273 100.325C28.5066 100.377 28.5921 100.42 28.6819 100.451C28.7619 100.476 28.8176 100.467 28.8488 100.424L30.6048 98.0655C30.6241 98.0433 30.6383 98.0171 30.6464 97.9887C30.6545 97.9604 30.6563 97.9307 30.6517 97.9016C30.641 97.8503 30.6167 97.8028 30.5814 97.7641C30.535 97.7092 30.4852 97.6574 30.4321 97.6089C30.4086 97.5939 30.391 97.5712 30.3824 97.5446C30.3826 97.5174 30.3931 97.4912 30.4117 97.4714C30.432 97.446 30.4581 97.426 30.4878 97.4129C30.5 97.405 30.5142 97.4009 30.5287 97.4009C30.5432 97.4009 30.5575 97.405 30.5697 97.4129L32.7062 98.9991L32.2555 99.763C32.2486 99.7738 32.2391 99.7827 32.2278 99.7889C32.2166 99.795 32.2039 99.7982 32.1911 99.7982C32.1652 99.799 32.1397 99.7919 32.118 99.7777C32.0902 99.7575 32.0672 99.7316 32.0506 99.7016C32.0324 99.6718 32.0261 99.6363 32.0331 99.6021L32.0653 99.3972C32.0852 99.3006 32.0989 99.2029 32.1063 99.1045C32.113 99.0428 32.104 98.9803 32.0799 98.9231C32.053 98.8616 32.0094 98.8089 31.9541 98.7709L31.2107 98.2206L30.3326 99.3913L30.8419 99.7689C30.8667 99.78 30.8937 99.7858 30.9209 99.7858C30.9482 99.7858 30.9751 99.78 30.9999 99.7689C31.0701 99.744 31.137 99.7106 31.199 99.6694C31.2495 99.6383 31.2965 99.602 31.3394 99.5611C31.3804 99.5201 31.4302 99.5201 31.4916 99.5611C31.5132 99.5775 31.5295 99.5999 31.5385 99.6255C31.5449 99.6371 31.5482 99.6502 31.5482 99.6635C31.5482 99.6768 31.5449 99.6899 31.5385 99.7016L30.8214 100.664C30.8139 100.676 30.8033 100.685 30.7909 100.691C30.7785 100.696 30.7647 100.698 30.7512 100.697C30.724 100.697 30.6974 100.689 30.6751 100.673C30.6501 100.655 30.6299 100.631 30.6165 100.603C30.6093 100.591 30.6056 100.576 30.6056 100.562C30.6056 100.548 30.6093 100.534 30.6165 100.521C30.6483 100.466 30.6728 100.407 30.6897 100.345C30.715 100.272 30.7298 100.195 30.7336 100.117C30.7384 100.089 30.736 100.06 30.7268 100.033C30.7176 100.006 30.7019 99.9815 30.6809 99.9621L30.1746 99.6313L29.3873 100.688C29.364 100.712 29.3464 100.742 29.3356 100.774C29.3248 100.806 29.321 100.84 29.3247 100.874C29.3283 100.907 29.3391 100.94 29.3565 100.969C29.3739 100.998 29.3974 101.023 29.4253 101.042L30.0487 101.502C30.1116 101.551 30.1841 101.588 30.2616 101.608C30.3392 101.629 30.4201 101.633 30.4995 101.622C30.708 101.576 30.9003 101.475 31.0555 101.329C31.0703 101.321 31.0869 101.316 31.1038 101.316C31.1207 101.316 31.1374 101.321 31.1521 101.329C31.1893 101.341 31.2248 101.357 31.2575 101.379C31.2828 101.398 31.3029 101.423 31.316 101.452C31.3225 101.464 31.3258 101.479 31.3258 101.493C31.3258 101.507 31.3225 101.521 31.316 101.534L30.6048 102.262L28.2868 100.509C28.2752 100.501 28.2664 100.489 28.2617 100.475C28.257 100.462 28.2566 100.447 28.2605 100.433C28.2638 100.401 28.276 100.371 28.2956 100.345C28.3093 100.327 28.3289 100.313 28.3512 100.307V100.307Z" fill="#F5EEE3"/>
<path d="M33.2419 103.992C33.1719 103.91 33.1093 103.822 33.0546 103.729C33.0462 103.712 33.0364 103.695 33.0253 103.679L32.9814 103.603L32.9346 103.521C32.9229 103.505 32.908 103.491 32.8907 103.48C32.8756 103.473 32.8591 103.469 32.8424 103.469C32.8257 103.469 32.8091 103.473 32.7941 103.48C32.7538 103.495 32.7111 103.502 32.6682 103.501C32.6345 103.499 32.6014 103.49 32.5717 103.474C32.5578 103.466 32.5459 103.455 32.5368 103.442C32.5277 103.429 32.5216 103.414 32.519 103.398C32.5164 103.382 32.5174 103.365 32.522 103.349C32.5265 103.332 32.5345 103.317 32.5453 103.305C32.5717 103.267 32.6126 103.202 32.6653 103.114C32.718 103.027 32.7619 102.95 32.8087 102.86C32.8555 102.769 32.8965 102.681 32.9316 102.605C32.996 102.47 33.037 102.386 33.0575 102.356C33.0661 102.34 33.0781 102.325 33.0927 102.314C33.1073 102.302 33.1243 102.294 33.1424 102.289C33.1592 102.285 33.1769 102.284 33.1941 102.287C33.2113 102.29 33.2276 102.297 33.2419 102.307C33.2705 102.323 33.2923 102.349 33.3033 102.38C33.3099 102.395 33.3133 102.412 33.3133 102.429C33.3133 102.447 33.3099 102.463 33.3033 102.479C33.2779 102.554 33.2574 102.63 33.2419 102.708C33.2243 102.793 33.2068 102.91 33.1892 103.059C33.1733 103.195 33.1863 103.332 33.2272 103.463C33.2619 103.581 33.3185 103.693 33.3941 103.79C33.4606 103.877 33.5418 103.951 33.6341 104.01C33.7793 104.106 33.9522 104.151 34.1258 104.139C34.2186 104.122 34.306 104.082 34.3804 104.024C34.4548 103.966 34.514 103.891 34.5531 103.805C34.5997 103.726 34.6285 103.637 34.6376 103.546C34.6467 103.455 34.6358 103.362 34.6057 103.275C34.5259 103.037 34.4167 102.81 34.2809 102.599C34.1698 102.423 34.072 102.239 33.9882 102.049C33.9166 101.889 33.8778 101.715 33.8741 101.54C33.8729 101.349 33.9268 101.162 34.0292 101.001C34.1277 100.825 34.2821 100.686 34.4682 100.606C34.6382 100.539 34.8232 100.519 35.0038 100.548C35.183 100.575 35.355 100.638 35.5101 100.732C35.6093 100.789 35.7016 100.856 35.7852 100.934C35.8535 101.002 35.9179 101.072 35.9784 101.145C35.9997 101.173 36.0243 101.198 36.0516 101.221C36.0708 101.234 36.0928 101.243 36.116 101.247H36.1686H36.2242C36.2494 101.248 36.2737 101.256 36.2945 101.27C36.3266 101.289 36.3521 101.316 36.3677 101.35C36.3741 101.363 36.3775 101.377 36.3775 101.392C36.3775 101.407 36.3741 101.421 36.3677 101.434C36.3251 101.502 36.287 101.572 36.2535 101.645C36.2184 101.715 36.1803 101.8 36.1335 101.9C36.0909 102 36.0431 102.097 35.9901 102.192C35.981 102.211 35.9678 102.228 35.9517 102.241C35.9355 102.254 35.9167 102.263 35.8965 102.269C35.8784 102.272 35.8598 102.272 35.8417 102.269C35.8236 102.265 35.8064 102.258 35.7911 102.248C35.7669 102.235 35.7467 102.216 35.7326 102.192C35.7281 102.183 35.7259 102.173 35.7259 102.163C35.7259 102.153 35.7281 102.143 35.7326 102.134C35.7985 101.975 35.8323 101.805 35.8321 101.633C35.8305 101.491 35.7922 101.35 35.7208 101.227C35.6568 101.106 35.5618 101.005 35.4457 100.934C35.3759 100.882 35.2954 100.847 35.2103 100.831C35.1251 100.814 35.0373 100.817 34.9533 100.838C34.8692 100.86 34.7911 100.9 34.7244 100.955C34.6577 101.011 34.6042 101.081 34.5677 101.159C34.5109 101.257 34.4902 101.372 34.5092 101.484C34.529 101.613 34.5664 101.74 34.6204 101.859C34.676 101.985 34.7579 102.151 34.8575 102.333L34.8809 102.377L34.9014 102.412C35.0155 102.623 35.1062 102.807 35.1706 102.959C35.2357 103.112 35.2734 103.276 35.2818 103.442C35.2932 103.612 35.2501 103.781 35.1589 103.925C35.0561 104.105 34.9037 104.251 34.7199 104.346C34.5474 104.434 34.3527 104.467 34.1609 104.443C33.9529 104.42 33.7528 104.35 33.5755 104.238C33.4519 104.175 33.3393 104.092 33.2419 103.992V103.992Z" fill="#F5EEE3"/>
<path d="M36.4084 105.696C36.407 105.664 36.4131 105.633 36.4259 105.605C36.4352 105.581 36.4529 105.561 36.4757 105.549C36.4876 105.544 36.5006 105.541 36.5138 105.541C36.5269 105.541 36.5399 105.544 36.5518 105.549C36.6385 105.587 36.7301 105.613 36.824 105.625C36.903 105.625 36.9557 105.625 36.9791 105.57L38.302 102.936C38.3139 102.909 38.3201 102.88 38.3201 102.851C38.3201 102.822 38.3139 102.793 38.302 102.766C38.2836 102.717 38.2523 102.673 38.2113 102.64C38.155 102.596 38.0963 102.555 38.0357 102.517C38.0108 102.504 37.9897 102.485 37.9742 102.462C37.9702 102.434 37.9765 102.406 37.9918 102.383C38.0084 102.356 38.0303 102.333 38.0562 102.315C38.0667 102.305 38.0802 102.298 38.0948 102.295C38.1095 102.292 38.1246 102.294 38.1381 102.301L39.3644 102.915C39.3766 102.923 39.3863 102.934 39.3925 102.947C39.3988 102.96 39.4012 102.974 39.3995 102.988C39.4078 103.018 39.4078 103.049 39.3995 103.079C39.3893 103.103 39.3706 103.123 39.3469 103.135C39.3357 103.141 39.3231 103.144 39.3103 103.144C39.2974 103.144 39.2848 103.141 39.2737 103.135C39.1858 103.1 39.0946 103.075 39.0015 103.059C38.9195 103.059 38.8669 103.059 38.8435 103.114L37.5235 105.748C37.5082 105.774 37.4986 105.802 37.4956 105.831C37.4925 105.861 37.4961 105.89 37.5059 105.918C37.526 105.966 37.5571 106.01 37.5967 106.044L37.7723 106.17C37.8074 106.19 37.8279 106.208 37.8337 106.225C37.8375 106.252 37.8313 106.279 37.8162 106.301C37.8006 106.33 37.7785 106.354 37.7518 106.372C37.74 106.379 37.7263 106.383 37.7123 106.383C37.6982 106.383 37.6845 106.379 37.6727 106.372L36.4464 105.757C36.4351 105.751 36.4256 105.742 36.4189 105.732C36.4122 105.721 36.4086 105.708 36.4084 105.696V105.696Z" fill="#F5EEE3"/>
<path d="M40.5234 107.534C40.3053 107.293 40.1611 106.994 40.1078 106.673C40.0618 106.275 40.1153 105.871 40.2634 105.498C40.4115 105.126 40.6497 104.795 40.9565 104.537C41.2235 104.336 41.5423 104.215 41.8755 104.189C42.1742 104.166 42.4741 104.21 42.7536 104.317C42.9291 104.386 43.0993 104.467 43.2628 104.56C43.3787 104.624 43.4884 104.699 43.5906 104.783C43.6722 104.85 43.7503 104.921 43.8248 104.996L43.5701 105.801C43.5677 105.815 43.5615 105.828 43.5523 105.839C43.543 105.85 43.531 105.858 43.5175 105.863C43.4931 105.873 43.4657 105.873 43.4414 105.863H43.4121C43.3565 105.839 43.3331 105.804 43.3477 105.751C43.3757 105.508 43.332 105.262 43.2218 105.043C43.0981 104.819 42.8959 104.648 42.6541 104.563C42.4795 104.494 42.29 104.471 42.1038 104.496C41.8621 104.535 41.6383 104.647 41.4629 104.818C41.1981 105.08 40.9978 105.399 40.8775 105.751C40.7386 106.069 40.6784 106.415 40.7019 106.761C40.7219 107.017 40.8121 107.262 40.9624 107.469C41.0788 107.63 41.2366 107.757 41.419 107.835C41.5955 107.917 41.7895 107.954 41.9838 107.944C42.0389 107.942 42.0924 107.924 42.1379 107.893C42.1835 107.862 42.2194 107.819 42.2414 107.768L42.496 107.118C42.5099 107.091 42.5172 107.06 42.5172 107.029C42.5172 106.998 42.5099 106.967 42.496 106.94C42.4636 106.886 42.4183 106.842 42.3643 106.811C42.3087 106.776 42.2355 106.738 42.1477 106.694C42.121 106.684 42.0976 106.667 42.0804 106.644C42.0717 106.618 42.0717 106.591 42.0804 106.565C42.0935 106.536 42.1136 106.511 42.1389 106.492C42.1483 106.481 42.161 106.473 42.1752 106.469C42.1893 106.465 42.2043 106.466 42.218 106.471L43.5175 106.984C43.5313 106.989 43.543 106.999 43.5509 107.012C43.5587 107.024 43.5624 107.039 43.5614 107.054C43.5706 107.083 43.5706 107.115 43.5614 107.145C43.5596 107.158 43.5547 107.17 43.5471 107.181C43.5394 107.192 43.5293 107.201 43.5175 107.207C43.5057 107.213 43.4926 107.216 43.4793 107.216C43.4661 107.216 43.453 107.212 43.4414 107.206C43.3591 107.179 43.2733 107.164 43.1867 107.162C43.1136 107.162 43.0638 107.186 43.0462 107.235L42.698 108.169C42.6061 108.212 42.5067 108.237 42.4053 108.242C42.2324 108.256 42.0585 108.249 41.8872 108.222C41.6514 108.183 41.4207 108.119 41.1995 108.028C40.9402 107.916 40.7093 107.747 40.5234 107.534V107.534Z" fill="#F5EEE3"/>
<path d="M44.7789 109.176C44.7716 109.145 44.7716 109.113 44.7789 109.082C44.7844 109.058 44.7966 109.037 44.8141 109.021C44.826 109.015 44.839 109.012 44.8521 109.012C44.8652 109.012 44.8782 109.015 44.8902 109.021C45.1682 109.073 45.3233 109.021 45.3555 108.909L46.1077 106.126C46.1167 106.097 46.1193 106.067 46.1153 106.037C46.1112 106.007 46.1006 105.979 46.0843 105.953C46.0525 105.91 46.0115 105.874 45.9643 105.848C45.9175 105.824 45.8472 105.795 45.7536 105.757C45.7267 105.751 45.7023 105.736 45.6833 105.716C45.6729 105.69 45.6729 105.661 45.6833 105.634C45.6921 105.604 45.7082 105.577 45.7301 105.555C45.739 105.543 45.7512 105.534 45.7652 105.529C45.7793 105.523 45.7946 105.523 45.8092 105.526L46.6872 105.763L47.9428 109.214H47.975L48.6247 106.799C48.6358 106.769 48.6384 106.737 48.6322 106.706C48.626 106.675 48.6112 106.647 48.5896 106.624C48.5528 106.578 48.5069 106.541 48.4549 106.515C48.4081 106.492 48.3291 106.46 48.2237 106.416C48.1964 106.41 48.1717 106.396 48.1535 106.375C48.1443 106.349 48.1443 106.321 48.1535 106.296C48.1634 106.265 48.1804 106.237 48.2032 106.214C48.2118 106.202 48.2236 106.193 48.237 106.188C48.2505 106.183 48.2652 106.182 48.2793 106.184L49.4735 106.506C49.4998 106.506 49.5144 106.536 49.5232 106.571C49.5304 106.602 49.5304 106.634 49.5232 106.664C49.5182 106.689 49.5047 106.711 49.4852 106.726C49.4733 106.732 49.4603 106.735 49.4471 106.735C49.4339 106.735 49.4209 106.732 49.4091 106.726L49.251 106.7C49.171 106.685 49.0886 106.69 49.011 106.714C48.9792 106.725 48.9507 106.744 48.9281 106.769C48.9056 106.794 48.8898 106.825 48.8823 106.858L48.0891 109.784C48.0797 109.818 48.0738 109.852 48.0715 109.887L48.054 109.98C48.0529 110.007 48.045 110.033 48.0312 110.055C48.0174 110.078 47.998 110.096 47.975 110.109C47.9346 110.125 47.8895 110.125 47.8491 110.109C47.8219 110.101 47.7962 110.088 47.773 110.071C47.7523 110.055 47.7345 110.035 47.7203 110.013L46.3418 106.375H46.2979L45.6131 108.912C45.6033 108.942 45.6008 108.973 45.6059 109.004C45.611 109.034 45.6235 109.063 45.6423 109.088C45.6772 109.132 45.7211 109.168 45.7711 109.193C45.8209 109.217 45.894 109.249 45.9906 109.287C46.0178 109.294 46.0423 109.31 46.0609 109.331C46.0711 109.356 46.0711 109.384 46.0609 109.41C46.0526 109.441 46.0365 109.469 46.014 109.492C46.0052 109.503 45.9935 109.512 45.9801 109.517C45.9666 109.522 45.9521 109.523 45.9379 109.521L44.8228 109.228C44.8119 109.224 44.8022 109.216 44.7946 109.207C44.787 109.198 44.7816 109.187 44.7789 109.176V109.176Z" fill="#F5EEE3"/>
<path d="M53.6593 111.046C53.4889 110.944 53.3501 110.797 53.2583 110.622C53.1713 110.449 53.1358 110.255 53.1559 110.063C53.2046 109.571 53.5256 109.245 54.1188 109.085C54.0103 108.921 53.9181 108.746 53.8436 108.564C53.7822 108.416 53.7571 108.255 53.7703 108.095C53.7835 107.936 53.8348 107.781 53.9197 107.645C54.0092 107.514 54.1355 107.412 54.2827 107.352C54.463 107.282 54.6585 107.259 54.8504 107.285C55.016 107.297 55.1773 107.343 55.3246 107.42C55.4467 107.477 55.5487 107.57 55.6173 107.686C55.6793 107.796 55.7039 107.924 55.6875 108.049C55.6788 108.193 55.6399 108.334 55.5734 108.462C55.5019 108.582 55.4013 108.683 55.2807 108.754C55.0943 108.868 54.8984 108.966 54.6953 109.047L55.5734 110.256C55.6436 110.136 55.7373 109.963 55.866 109.706C55.9398 109.567 56.0006 109.422 56.0475 109.272C56.0497 109.246 56.0425 109.219 56.0269 109.197C56.0114 109.175 55.9886 109.159 55.9626 109.152C55.8913 109.121 55.8167 109.097 55.7402 109.082C55.7276 109.081 55.7154 109.077 55.7043 109.071C55.6932 109.065 55.6835 109.057 55.6758 109.047C55.669 109.023 55.669 108.998 55.6758 108.974C55.6778 108.947 55.6892 108.921 55.708 108.901C55.7164 108.891 55.7273 108.883 55.7396 108.878C55.7519 108.874 55.7652 108.872 55.7782 108.874L56.8406 108.98C56.8538 108.981 56.8664 108.986 56.8775 108.993C56.8887 109 56.8981 109.009 56.905 109.021C56.9173 109.045 56.9224 109.073 56.9197 109.1C56.9197 109.167 56.8816 109.196 56.8202 109.19C56.737 109.18 56.6527 109.19 56.5743 109.22C56.5008 109.247 56.4367 109.295 56.3899 109.357C56.3226 109.457 56.2114 109.65 56.0592 109.91C55.907 110.171 55.8163 110.335 55.7402 110.455L56.065 110.906C56.1252 110.974 56.1965 111.031 56.2758 111.075C56.3585 111.125 56.4483 111.161 56.5421 111.184C56.5697 111.186 56.5961 111.196 56.6182 111.213C56.6274 111.238 56.6274 111.266 56.6182 111.292C56.6155 111.319 56.6042 111.345 56.586 111.365C56.5779 111.376 56.5671 111.384 56.5548 111.389C56.5425 111.394 56.529 111.396 56.5158 111.394L55.7197 111.315L55.4095 110.879C55.2691 111.014 55.1028 111.118 54.9207 111.187C54.7275 111.255 54.5212 111.278 54.3178 111.254C54.0853 111.236 53.8601 111.164 53.6593 111.046V111.046ZM54.8036 110.944C54.9687 110.884 55.1193 110.79 55.2456 110.668L54.2446 109.243C54.0836 109.316 53.9525 109.442 53.8729 109.6C53.7966 109.764 53.75 109.941 53.7354 110.121C53.7203 110.256 53.7322 110.392 53.7705 110.522C53.8074 110.646 53.8784 110.756 53.9753 110.841C54.0816 110.932 54.2138 110.986 54.3529 110.996C54.5048 111.013 54.6585 110.997 54.8036 110.949V110.944ZM54.95 108.655C55.0285 108.59 55.0907 108.508 55.1314 108.415C55.1806 108.285 55.2102 108.149 55.2192 108.011C55.2243 107.935 55.2143 107.858 55.19 107.786C55.1646 107.704 55.1193 107.629 55.0582 107.569C54.9917 107.505 54.9046 107.467 54.8124 107.461C54.7315 107.453 54.6501 107.47 54.5783 107.508C54.5012 107.548 54.4357 107.607 54.388 107.68C54.3361 107.754 54.3048 107.839 54.2973 107.929C54.2766 108.095 54.2885 108.263 54.3324 108.424C54.3901 108.588 54.4742 108.742 54.5812 108.88C54.7099 108.817 54.8333 108.744 54.95 108.661V108.655Z" fill="#F5EEE3"/>
<path d="M62.2902 111.474C62.1894 111.444 62.0915 111.406 61.9975 111.359L61.9478 111.336L61.8688 111.295L61.7839 111.254H61.7254C61.7088 111.256 61.6928 111.261 61.6786 111.269C61.6644 111.278 61.6523 111.29 61.6434 111.304C61.6183 111.34 61.5865 111.371 61.5497 111.395C61.5213 111.412 61.4893 111.423 61.4561 111.427C61.4398 111.427 61.4237 111.424 61.4086 111.418C61.3935 111.412 61.3798 111.403 61.3683 111.392C61.3572 111.38 61.3488 111.365 61.3437 111.35C61.3387 111.334 61.3371 111.317 61.339 111.301C61.339 111.251 61.339 111.178 61.339 111.076C61.339 110.973 61.3244 110.885 61.3127 110.783C61.301 110.68 61.2863 110.587 61.2717 110.49C61.2512 110.344 61.2395 110.25 61.2366 110.215C61.2341 110.197 61.2354 110.179 61.2406 110.162C61.2458 110.144 61.2547 110.128 61.2666 110.115C61.2786 110.101 61.2933 110.09 61.3098 110.083C61.3264 110.075 61.3443 110.072 61.3624 110.072C61.3954 110.069 61.4283 110.077 61.4561 110.095C61.4826 110.116 61.5021 110.145 61.5117 110.177C61.5322 110.247 61.5585 110.32 61.5907 110.402C61.6229 110.484 61.6727 110.587 61.7429 110.721C61.8056 110.842 61.8922 110.949 61.9975 111.035C62.0929 111.115 62.2033 111.176 62.3224 111.213C62.4257 111.249 62.535 111.265 62.6444 111.26C62.8175 111.259 62.9855 111.2 63.1214 111.093C63.1892 111.027 63.24 110.946 63.2695 110.856C63.2991 110.767 63.3065 110.671 63.2912 110.578C63.2856 110.486 63.2599 110.397 63.2159 110.316C63.1719 110.235 63.1107 110.164 63.0365 110.11C62.8387 109.956 62.6212 109.829 62.3897 109.732C62.1985 109.648 62.0136 109.55 61.8366 109.44C61.6874 109.346 61.5582 109.223 61.4561 109.08C61.3492 108.923 61.2903 108.739 61.2863 108.55C61.2657 108.344 61.3152 108.138 61.4268 107.964C61.5295 107.812 61.6723 107.69 61.8395 107.613C62.0034 107.538 62.1802 107.494 62.3605 107.484C62.4748 107.477 62.5896 107.482 62.7029 107.499C62.7971 107.515 62.8901 107.537 62.9809 107.566C63.0153 107.577 63.0506 107.584 63.0863 107.587C63.1087 107.588 63.1308 107.583 63.1507 107.572C63.1673 107.564 63.1822 107.554 63.1946 107.54L63.218 107.534C63.2392 107.519 63.2649 107.51 63.2912 107.511C63.3273 107.508 63.3633 107.517 63.3936 107.537C63.4076 107.543 63.4198 107.553 63.429 107.565C63.4382 107.578 63.4442 107.592 63.4463 107.607C63.4488 107.687 63.4556 107.766 63.4668 107.844L63.5107 108.137C63.5323 108.243 63.548 108.351 63.5575 108.459C63.5604 108.48 63.5588 108.501 63.5527 108.521C63.5467 108.542 63.5363 108.56 63.5224 108.576C63.4956 108.602 63.46 108.617 63.4229 108.617C63.3958 108.618 63.3688 108.613 63.3438 108.602C63.3175 108.602 63.3029 108.576 63.2999 108.562C63.2666 108.393 63.1988 108.234 63.1009 108.093C63.0251 107.978 62.9204 107.884 62.7972 107.821C62.674 107.759 62.5365 107.729 62.3985 107.736C62.3101 107.73 62.2215 107.745 62.1395 107.778C62.0574 107.812 61.984 107.863 61.9249 107.929C61.8657 107.995 61.8222 108.074 61.7978 108.159C61.7734 108.244 61.7686 108.334 61.7839 108.421C61.7937 108.531 61.8413 108.635 61.9185 108.714C62.0044 108.809 62.1029 108.893 62.2112 108.962C62.3283 109.036 62.4834 109.121 62.6736 109.22L62.7146 109.243L62.7526 109.264C62.9663 109.375 63.1419 109.475 63.2824 109.557C63.4209 109.648 63.5435 109.762 63.6453 109.893C63.7486 110.029 63.8069 110.194 63.8121 110.364C63.8267 110.567 63.783 110.771 63.6863 110.95C63.5888 111.116 63.4469 111.252 63.2765 111.342C63.0948 111.435 62.8952 111.488 62.6912 111.497C62.5571 111.51 62.4219 111.502 62.2902 111.474Z" fill="#F5EEE3"/>
<path d="M66.3876 111.046C66.37 111.02 66.3571 110.991 66.3496 110.961C66.3428 110.937 66.3428 110.912 66.3496 110.888C66.3659 110.866 66.39 110.851 66.4169 110.847C66.5506 110.823 66.6806 110.782 66.8032 110.724C66.8457 110.71 66.8818 110.681 66.9054 110.643C66.9289 110.605 66.9384 110.56 66.932 110.516L66.4988 107.457L65.814 107.554C65.6852 107.572 65.6032 107.686 65.571 107.891C65.5373 108.084 65.5265 108.28 65.5389 108.476C65.5418 108.503 65.5345 108.53 65.5184 108.552C65.4992 108.568 65.4758 108.578 65.4511 108.581C65.4192 108.583 65.3872 108.578 65.3574 108.567C65.3223 108.567 65.3018 108.535 65.3018 108.508C65.241 108.132 65.2185 107.75 65.2345 107.37L68.249 106.948C68.3065 107.068 68.3431 107.197 68.3573 107.329C68.4129 107.586 68.4598 107.829 68.5007 108.063C68.5019 108.077 68.4989 108.092 68.4921 108.104C68.4854 108.117 68.4752 108.127 68.4627 108.134C68.4383 108.154 68.409 108.167 68.3778 108.172C68.3544 108.181 68.3281 108.181 68.3046 108.172C68.2939 108.164 68.2848 108.155 68.2777 108.144C68.2707 108.132 68.2659 108.12 68.2637 108.107C68.2194 107.916 68.1547 107.731 68.0705 107.554C67.9827 107.367 67.8744 107.282 67.7427 107.302L67.0637 107.399L67.4969 110.449C67.4987 110.481 67.5096 110.512 67.5282 110.538C67.5468 110.565 67.5725 110.585 67.6022 110.598C67.6654 110.628 67.7344 110.643 67.8042 110.642C67.8948 110.647 67.9857 110.647 68.0764 110.642C68.1031 110.634 68.1315 110.634 68.1583 110.642C68.1758 110.662 68.1861 110.688 68.1876 110.715C68.1954 110.746 68.1954 110.778 68.1876 110.809C68.1847 110.823 68.1776 110.836 68.1671 110.846C68.1566 110.856 68.1433 110.862 68.129 110.864L66.4754 111.101C66.4566 111.104 66.4376 111.099 66.4216 111.089C66.4056 111.079 66.3936 111.064 66.3876 111.046V111.046Z" fill="#F5EEE3"/>
<path d="M70.7477 110.337C70.7273 110.313 70.7114 110.285 70.7009 110.255C70.6958 110.243 70.6936 110.23 70.6942 110.217C70.6948 110.204 70.6984 110.192 70.7045 110.18C70.7107 110.169 70.7193 110.159 70.7298 110.151C70.7403 110.143 70.7524 110.138 70.7652 110.135C70.8555 110.107 70.942 110.068 71.0228 110.018C71.0901 109.975 71.1194 109.925 71.1048 109.872L70.3994 107.021C70.3949 106.992 70.3842 106.964 70.368 106.94C70.3519 106.915 70.3307 106.894 70.3057 106.878C70.2629 106.854 70.2145 106.841 70.1653 106.84L69.9633 106.858C69.9366 106.866 69.9081 106.866 69.8814 106.858C69.8604 106.84 69.8469 106.815 69.8433 106.787C69.8361 106.756 69.8361 106.724 69.8433 106.694C69.8451 106.679 69.851 106.666 69.8604 106.655C69.8698 106.644 69.8821 106.636 69.896 106.632L70.3877 106.506C70.537 106.468 70.695 106.427 70.8589 106.378L71.014 106.331C71.0989 106.307 71.1955 106.281 71.3067 106.255C71.6422 106.157 71.9985 106.157 72.334 106.255C72.4766 106.307 72.6029 106.396 72.7001 106.512C72.7972 106.629 72.8618 106.769 72.8872 106.919C72.9592 107.162 72.9393 107.423 72.8314 107.652C72.7235 107.882 72.535 108.063 72.3018 108.163C72.4277 108.14 72.5573 108.148 72.6793 108.187C72.8013 108.226 72.9118 108.294 73.0013 108.385C73.0982 108.492 73.1891 108.605 73.2735 108.722C73.3437 108.818 73.3993 108.895 73.4432 108.95C73.4881 109.006 73.537 109.059 73.5896 109.108C73.6433 109.182 73.7154 109.24 73.7985 109.277C73.8817 109.314 73.9732 109.328 74.0637 109.319C74.0901 109.309 74.1192 109.309 74.1457 109.319C74.1679 109.341 74.1823 109.37 74.1866 109.401C74.1937 109.429 74.1937 109.458 74.1866 109.486C74.1842 109.499 74.1779 109.512 74.1685 109.521C74.1592 109.531 74.1472 109.538 74.134 109.541L73.4286 109.717C73.3952 109.725 73.3603 109.726 73.3268 109.718C73.2932 109.71 73.2619 109.695 73.2354 109.673C73.1671 109.62 73.1061 109.558 73.054 109.489C72.9954 109.41 72.9193 109.298 72.8257 109.158C72.7028 108.968 72.5945 108.816 72.5037 108.698C72.4151 108.589 72.3082 108.496 72.1877 108.423C72.0717 108.356 71.934 108.337 71.8042 108.371L71.336 108.488L71.6286 109.658C71.6339 109.689 71.6461 109.718 71.6644 109.743C71.6827 109.767 71.7065 109.788 71.734 109.802C71.7894 109.825 71.8496 109.835 71.9096 109.831C71.9882 109.827 72.0665 109.817 72.1438 109.802C72.1707 109.795 72.1988 109.795 72.2257 109.802C72.2466 109.82 72.2602 109.845 72.2638 109.872C72.271 109.903 72.271 109.935 72.2638 109.966C72.2638 110.004 72.2374 110.024 72.2111 110.03L70.8355 110.373C70.819 110.377 70.8017 110.375 70.786 110.369C70.7703 110.363 70.7569 110.352 70.7477 110.337V110.337ZM72.3428 107.141C72.3274 107.02 72.2839 106.904 72.2158 106.802C72.1477 106.701 72.0569 106.616 71.9506 106.556C71.7279 106.469 71.482 106.461 71.254 106.533L70.8735 106.626L71.2774 108.265L71.7194 108.154C72.2696 108.019 72.4774 107.683 72.3428 107.141V107.141Z" fill="#F5EEE3"/>
<path d="M79.2444 107.557C79.2657 107.574 79.281 107.598 79.2883 107.624C79.296 107.655 79.296 107.687 79.2883 107.718C79.2877 107.733 79.283 107.747 79.2747 107.759C79.2664 107.771 79.2549 107.78 79.2415 107.785L77.9654 108.251C77.9509 108.254 77.9357 108.254 77.9213 108.25C77.9069 108.246 77.8938 108.238 77.8834 108.227C77.8595 108.207 77.8413 108.181 77.8308 108.151C77.8259 108.14 77.8233 108.127 77.8233 108.115C77.8233 108.102 77.8259 108.09 77.8308 108.078C77.8361 108.066 77.8438 108.056 77.8534 108.047C77.863 108.039 77.8742 108.032 77.8864 108.028L77.9888 107.984C78.0515 107.961 78.1122 107.933 78.1703 107.9C78.1848 107.894 78.1967 107.883 78.2037 107.869C78.2107 107.855 78.2123 107.839 78.2083 107.823C78.2033 107.812 78.1963 107.801 78.1878 107.791L77.5586 106.978L76.3323 107.423L76.3557 108.462C76.3546 108.472 76.3546 108.483 76.3557 108.494C76.3616 108.509 76.3731 108.521 76.3877 108.528C76.4024 108.535 76.4192 108.537 76.4347 108.532C76.5013 108.519 76.5668 108.501 76.6308 108.479L76.7596 108.438C76.7841 108.429 76.8112 108.429 76.8357 108.438C76.8561 108.452 76.8707 108.473 76.8767 108.497C76.8842 108.527 76.8842 108.56 76.8767 108.59C76.8767 108.605 76.8726 108.619 76.8648 108.631C76.857 108.642 76.8458 108.652 76.8327 108.658L75.7528 109.05C75.7396 109.055 75.7251 109.057 75.7111 109.054C75.697 109.052 75.6841 109.045 75.6738 109.035C75.6481 109.013 75.6289 108.985 75.6182 108.953C75.6025 108.916 75.6025 108.89 75.6182 108.874C75.6346 108.851 75.6582 108.833 75.6855 108.824L75.7528 108.798C75.7978 108.779 75.8417 108.757 75.8845 108.734C75.9197 108.712 75.9489 108.682 75.9694 108.646C75.995 108.596 76.0071 108.541 76.0045 108.485V104.806L76.4142 104.657L78.7322 107.502C78.7645 107.545 78.808 107.578 78.8581 107.598C78.8961 107.613 78.9372 107.619 78.9781 107.616C79.0257 107.607 79.0726 107.596 79.1185 107.581L79.1888 107.557C79.2072 107.554 79.226 107.554 79.2444 107.557V107.557ZM76.3176 105.424V107.18L77.3918 106.79L76.3176 105.424Z" fill="#F5EEE3"/>
<path d="M81.3425 106.799C81.316 106.782 81.2947 106.758 81.2811 106.729C81.2728 106.719 81.2672 106.707 81.2647 106.694C81.2622 106.681 81.2628 106.667 81.2666 106.655C81.2703 106.642 81.277 106.63 81.2862 106.621C81.2953 106.611 81.3066 106.604 81.3191 106.6C81.4414 106.537 81.5547 106.457 81.6557 106.363C81.6917 106.337 81.7173 106.299 81.728 106.255C81.7387 106.212 81.7338 106.166 81.7142 106.126L80.3796 103.34L79.7562 103.632C79.6352 103.691 79.5913 103.823 79.6245 104.028C79.6514 104.222 79.7005 104.412 79.7709 104.595C79.7809 104.62 79.7809 104.647 79.7709 104.671C79.7571 104.692 79.7378 104.708 79.7152 104.718C79.6857 104.731 79.6537 104.737 79.6216 104.736C79.5835 104.736 79.5601 104.721 79.5513 104.695C79.3818 104.353 79.2447 103.997 79.1416 103.63L81.8781 102.312C81.8957 102.312 81.9688 102.415 82.0976 102.643C82.2264 102.872 82.3464 103.091 82.4547 103.299C82.4598 103.313 82.4611 103.327 82.4585 103.342C82.456 103.356 82.4496 103.37 82.44 103.381C82.422 103.407 82.3979 103.428 82.3698 103.442C82.347 103.45 82.3223 103.45 82.2996 103.442C82.2868 103.439 82.2749 103.432 82.2648 103.424C82.2547 103.415 82.2466 103.405 82.241 103.392C82.1421 103.224 82.0243 103.066 81.8898 102.924C81.7493 102.772 81.6206 102.725 81.5006 102.781L80.883 103.073L82.2147 105.851C82.227 105.881 82.247 105.907 82.2727 105.926C82.2985 105.946 82.3289 105.958 82.361 105.962C82.4298 105.971 82.4996 105.965 82.5659 105.945C82.6533 105.918 82.7392 105.887 82.8235 105.851C82.85 105.842 82.8788 105.842 82.9054 105.851C82.92 105.851 82.9376 105.874 82.9552 105.912C82.9683 105.941 82.9733 105.972 82.9698 106.003C82.9715 106.018 82.9688 106.033 82.9621 106.046C82.9553 106.059 82.9447 106.069 82.9317 106.076L81.4274 106.799C81.415 106.808 81.4002 106.813 81.385 106.813C81.3697 106.813 81.3549 106.808 81.3425 106.799V106.799Z" fill="#F5EEE3"/>
<path d="M85.2004 104.66C85.2029 104.647 85.208 104.634 85.2156 104.623C85.2232 104.612 85.2329 104.603 85.2443 104.596C85.3222 104.541 85.393 104.477 85.4551 104.405C85.5077 104.344 85.5194 104.288 85.4931 104.242L83.9653 101.733C83.9518 101.706 83.9324 101.683 83.9086 101.665C83.8848 101.647 83.8572 101.634 83.8278 101.628C83.7779 101.614 83.7254 101.614 83.6756 101.628C83.6077 101.651 83.5412 101.679 83.4766 101.71C83.4385 101.727 83.4122 101.736 83.3975 101.73C83.3829 101.724 83.3595 101.71 83.339 101.675C83.324 101.647 83.316 101.616 83.3156 101.584C83.3131 101.57 83.3148 101.555 83.3205 101.541C83.3262 101.528 83.3357 101.516 83.3478 101.508L85.619 100.124L86.1575 100.829C86.1639 100.84 86.1673 100.853 86.1673 100.865C86.1673 100.878 86.1639 100.891 86.1575 100.902C86.1476 100.926 86.1301 100.945 86.1077 100.958C86.0791 100.976 86.0474 100.989 86.0141 100.996C85.9792 101 85.9437 100.992 85.9146 100.972L85.739 100.867C85.6277 100.797 85.5429 100.75 85.4843 100.721C85.428 100.692 85.3659 100.677 85.3029 100.677C85.236 100.68 85.1711 100.701 85.1156 100.738L84.3283 101.218L85.0921 102.477L85.6336 102.143C85.6536 102.124 85.6692 102.102 85.6793 102.076C85.6894 102.051 85.6938 102.024 85.6921 101.997C85.6948 101.923 85.6889 101.849 85.6746 101.777C85.6653 101.718 85.6496 101.66 85.6277 101.604C85.6043 101.552 85.6248 101.505 85.6892 101.464C85.7127 101.452 85.7389 101.446 85.7653 101.446C85.7791 101.447 85.7926 101.451 85.8044 101.458C85.8162 101.465 85.826 101.475 85.8326 101.487L86.4589 102.515C86.4653 102.526 86.4687 102.539 86.4687 102.553C86.4687 102.566 86.4653 102.579 86.4589 102.591C86.4489 102.616 86.4302 102.637 86.4063 102.649C86.3812 102.667 86.3518 102.677 86.3214 102.679C86.3072 102.68 86.2928 102.677 86.2799 102.671C86.2671 102.665 86.2561 102.655 86.2482 102.643C86.2083 102.593 86.1621 102.548 86.1107 102.509C86.0513 102.458 85.9854 102.416 85.9146 102.383C85.8897 102.37 85.8621 102.363 85.8341 102.363C85.8061 102.363 85.7785 102.37 85.7536 102.383L85.2268 102.708L85.9116 103.832C85.9258 103.862 85.9465 103.89 85.9722 103.912C85.9979 103.934 86.0281 103.95 86.0606 103.959C86.0932 103.968 86.1273 103.97 86.1607 103.965C86.1941 103.96 86.2259 103.947 86.2541 103.928L86.9126 103.524C86.9846 103.486 87.0478 103.434 87.0982 103.369C87.1486 103.305 87.185 103.232 87.2053 103.153C87.2423 102.942 87.2211 102.726 87.1438 102.526C87.1385 102.51 87.1379 102.493 87.142 102.476C87.1462 102.46 87.1549 102.445 87.1672 102.433C87.1921 102.402 87.2217 102.375 87.255 102.354C87.2815 102.337 87.3118 102.328 87.3428 102.327C87.3572 102.327 87.3714 102.331 87.3841 102.337C87.3969 102.344 87.4078 102.354 87.416 102.365L87.8257 103.296L85.3673 104.795C85.3553 104.803 85.341 104.808 85.3263 104.808C85.3116 104.808 85.2972 104.803 85.2853 104.795C85.2584 104.78 85.2354 104.759 85.218 104.733C85.2031 104.712 85.1968 104.686 85.2004 104.66V104.66Z" fill="#F5EEE3"/>
<path d="M90.3194 101.417C90.0002 101.479 89.6699 101.447 89.3682 101.326C89.0042 101.158 88.6871 100.903 88.4447 100.583C88.2023 100.264 88.0421 99.8897 87.978 99.4939C87.9459 99.1616 88.0077 98.8269 88.1565 98.528C88.2959 98.2542 88.4962 98.016 88.7419 97.8315C88.8889 97.7149 89.0455 97.6111 89.2102 97.5212C89.3251 97.4552 89.4455 97.3994 89.5701 97.3544C89.6667 97.3222 89.7692 97.2929 89.8628 97.2666L90.4189 97.8988C90.429 97.909 90.4364 97.9216 90.4405 97.9354C90.4445 97.9492 90.4452 97.9637 90.4423 97.9778C90.4421 97.991 90.4388 98.0039 90.4327 98.0156C90.4266 98.0273 90.4179 98.0374 90.4072 98.0451L90.3867 98.0656C90.3783 98.0741 90.3682 98.0808 90.3572 98.0854C90.3461 98.09 90.3343 98.0924 90.3223 98.0924C90.3103 98.0924 90.2985 98.09 90.2874 98.0854C90.2764 98.0808 90.2664 98.0741 90.2579 98.0656C90.0661 97.9148 89.8339 97.8241 89.5906 97.8051C89.3333 97.7933 89.0808 97.8779 88.8824 98.0422C88.7338 98.1569 88.6161 98.3067 88.5399 98.4783C88.4489 98.7051 88.4295 98.9543 88.4843 99.1924C88.5714 99.5539 88.7406 99.8904 88.9789 100.176C89.1788 100.46 89.4451 100.691 89.7545 100.849C89.9823 100.965 90.2375 101.015 90.4921 100.995C90.6907 100.978 90.881 100.908 91.0423 100.79C91.2058 100.685 91.339 100.539 91.4286 100.366C91.4541 100.317 91.4659 100.262 91.4628 100.207C91.4597 100.152 91.4418 100.099 91.4111 100.053L90.9867 99.4997C90.9698 99.4737 90.9469 99.4522 90.9199 99.4369C90.8929 99.4216 90.8626 99.413 90.8316 99.4119C90.7694 99.4122 90.7082 99.4273 90.653 99.4558C90.5945 99.488 90.5243 99.529 90.4423 99.5846C90.4194 99.6019 90.3919 99.6121 90.3633 99.6139C90.3377 99.6049 90.3159 99.5873 90.3018 99.5641C90.2849 99.5375 90.2739 99.5076 90.2696 99.4763C90.2652 99.4623 90.265 99.4473 90.2692 99.4332C90.2733 99.4191 90.2817 99.4066 90.2931 99.3973L91.4052 98.5515C91.4173 98.5433 91.4316 98.5389 91.4462 98.5389C91.4608 98.5389 91.4751 98.5433 91.4872 98.5515C91.5159 98.5635 91.541 98.5827 91.5603 98.6071C91.5785 98.626 91.5889 98.6511 91.5896 98.6773C91.588 98.6901 91.5838 98.7024 91.5773 98.7135C91.5707 98.7245 91.562 98.7342 91.5516 98.7417C91.4859 98.7986 91.4287 98.8647 91.3818 98.9378C91.3642 98.9604 91.3547 98.9882 91.3547 99.0168C91.3547 99.0454 91.3642 99.0732 91.3818 99.0958L91.9994 99.8744C91.993 99.9766 91.9651 100.076 91.9174 100.167C91.8377 100.322 91.7394 100.466 91.6247 100.597C91.471 100.78 91.2961 100.944 91.1038 101.086C90.8711 101.255 90.6027 101.368 90.3194 101.417Z" fill="#F5EEE3"/>
<path d="M93.7348 93.6262C93.7612 93.6306 93.7856 93.6429 93.805 93.6613C93.8314 93.6905 93.846 93.714 93.8431 93.7315C93.8374 93.7587 93.823 93.7834 93.8021 93.8018C93.7648 93.8421 93.7306 93.8852 93.6997 93.9305C93.6741 93.9694 93.6572 94.0133 93.6499 94.0593C93.6362 94.124 93.6362 94.1908 93.6499 94.2554L94.1826 96.3041L94.9289 97.1032C94.9611 97.1394 95.0063 97.1615 95.0548 97.1646C95.0999 97.1616 95.1434 97.1464 95.1806 97.1207C95.2326 97.087 95.2815 97.0488 95.3269 97.0066L95.4118 96.9363C95.438 96.9148 95.4677 96.8979 95.4996 96.8866C95.5137 96.8863 95.5277 96.8894 95.5404 96.8955C95.5531 96.9016 95.5642 96.9106 95.5728 96.9217C95.5926 96.947 95.6075 96.9758 95.6167 97.0066C95.6219 97.02 95.623 97.0347 95.6198 97.0487C95.6167 97.0628 95.6095 97.0756 95.5991 97.0856L94.4811 98.1363C94.4688 98.1438 94.4546 98.1478 94.4401 98.1478C94.4257 98.1478 94.4115 98.1438 94.3992 98.1363C94.3691 98.1281 94.3418 98.1119 94.3201 98.0895C94.3107 98.08 94.3037 98.0684 94.2997 98.0557C94.2956 98.043 94.2946 98.0295 94.2967 98.0163C94.302 97.987 94.3151 97.9597 94.3348 97.9373L94.405 97.8641C94.4696 97.8047 94.5257 97.7368 94.5718 97.6622C94.5862 97.6365 94.5911 97.6067 94.5857 97.5779C94.5804 97.549 94.5651 97.5229 94.5426 97.5041L93.8343 96.7461L91.7212 96.0466C91.6593 96.0246 91.5935 96.0156 91.528 96.0203C91.4827 96.0228 91.4386 96.0358 91.3992 96.0583C91.3508 96.0867 91.3048 96.119 91.2617 96.1549C91.2403 96.1727 91.2153 96.1857 91.1885 96.1929C91.1612 96.1875 91.1371 96.1718 91.1212 96.149C91.1042 96.1279 91.0931 96.1026 91.089 96.0759C91.0869 96.0627 91.0879 96.0492 91.0919 96.0365C91.096 96.0238 91.103 96.0122 91.1124 96.0027L92.1455 95.0339C92.1555 95.0244 92.1677 95.0175 92.181 95.0139C92.1943 95.0104 92.2083 95.0102 92.2216 95.0134C92.2479 95.02 92.272 95.0331 92.2919 95.0515C92.31 95.0684 92.3215 95.0912 92.3241 95.1159C92.3237 95.1422 92.3132 95.1673 92.2948 95.1861C92.2215 95.2605 92.1522 95.3387 92.087 95.4203C92.046 95.4759 92.0402 95.5198 92.0636 95.5461C92.0747 95.5562 92.0876 95.5642 92.1016 95.5695L93.8958 96.2398L93.3631 94.4018C93.3662 94.3893 93.3662 94.3762 93.3631 94.3637C93.3338 94.3403 93.2899 94.3461 93.2314 94.3842C93.1476 94.4416 93.0674 94.5042 92.9914 94.5715C92.9711 94.589 92.945 94.5984 92.9182 94.5978C92.8941 94.5906 92.8727 94.5764 92.8567 94.5569C92.838 94.5381 92.8265 94.5131 92.8246 94.4866C92.8216 94.4735 92.8222 94.4597 92.8263 94.4469C92.8305 94.434 92.8379 94.4225 92.848 94.4135L93.6704 93.6437C93.6787 93.6354 93.689 93.6295 93.7003 93.6264C93.7115 93.6233 93.7234 93.6232 93.7348 93.6262V93.6262Z" fill="#F5EEE3"/>
<path d="M59.9982 120.997C46.1562 120.988 32.7428 116.195 22.03 107.429C11.3173 98.6635 3.96396 86.4642 1.21554 72.8977C-1.53287 59.3313 0.492649 45.2319 6.94899 32.9878C13.4053 20.7438 23.8956 11.1078 36.6427 5.71228C49.4691 0.27012 63.7898 -0.538303 77.1472 3.42573C90.5046 7.38977 102.066 15.8791 109.847 27.437C117.629 38.9948 121.145 52.9006 119.793 66.768C118.44 80.6355 112.304 93.5999 102.436 103.437C96.8684 109.016 90.2528 113.439 82.9698 116.453C75.6869 119.466 67.8801 121.011 59.9982 120.997V120.997ZM59.9982 1.73189C27.321 1.73481 0.734293 28.3215 0.734293 60.9987C0.734293 93.676 27.321 120.269 59.9982 120.269C92.6755 120.269 119.265 93.6819 119.265 61.0017C119.265 28.3215 92.6813 1.73481 59.9982 1.73481V1.73189Z" fill="#F5EEE3"/>
<path d="M59.4133 38.0994C58.5645 38.1249 57.7172 38.0113 56.9051 37.7629C56.8224 37.7348 56.7508 37.6808 56.7011 37.609C56.6514 37.5371 56.6262 37.4511 56.6291 37.3638C56.6321 37.2765 56.6631 37.1924 56.7175 37.1241C56.772 37.0557 56.847 37.0067 56.9315 36.9843C57.7491 36.8045 58.5851 36.722 59.4221 36.7385C60.2612 36.7055 61.1006 36.7972 61.9128 37.0107C61.9963 37.0336 62.0701 37.0832 62.1229 37.1518C62.1758 37.2205 62.2047 37.3045 62.2055 37.3912C62.2055 37.4797 62.1771 37.5659 62.1244 37.6371C62.0717 37.7082 61.9975 37.7605 61.9128 37.7863C61.1007 38.0184 60.2576 38.1241 59.4133 38.0994V38.0994ZM59.5011 37.0809H59.4133C58.6039 37.0637 57.7952 37.1433 57.0046 37.318C56.9912 37.3195 56.9788 37.3261 56.9701 37.3364C56.9614 37.3468 56.957 37.3601 56.9578 37.3736C56.9567 37.3881 56.9608 37.4026 56.9694 37.4144C56.978 37.4262 56.9905 37.4346 57.0046 37.438V37.438C57.7809 37.6742 58.5906 37.782 59.4016 37.757C60.2109 37.7828 61.0194 37.6841 61.7986 37.4643C61.8123 37.461 61.8244 37.4531 61.8329 37.4419C61.8414 37.4307 61.8459 37.4169 61.8455 37.4029C61.8459 37.3896 61.8418 37.3765 61.8338 37.3659C61.8258 37.3552 61.8145 37.3476 61.8016 37.3443C61.0511 37.1481 60.2766 37.0594 59.5011 37.0809V37.0809Z" fill="#F5EEE3"/>
<path d="M58.652 85.9873H58.0842C51.8707 85.9375 50.6239 85.4282 50.3839 85.1882C50.021 84.9365 42.8036 79.8323 40.4095 73.6773C37.0028 65.9507 38.2525 58.8738 44.4601 50.7403C44.4806 50.7052 47.5245 45.8526 55.5818 40.2215C55.7261 40.1223 55.8428 39.9881 55.9211 39.8314C55.9994 39.6748 56.0367 39.5009 56.0296 39.326L55.9594 37.5289C55.9513 37.3215 56.0063 37.1165 56.1171 36.941C56.2278 36.7655 56.3892 36.6276 56.5799 36.5455C57.5642 36.16 58.6169 35.9797 59.6734 36.0158C60.4799 35.9775 61.2862 36.0968 62.047 36.367C62.2239 36.4501 62.3731 36.5823 62.4769 36.7478C62.5807 36.9134 62.6346 37.1053 62.6324 37.3006V39.1533C62.6298 39.3263 62.6705 39.4973 62.7507 39.6506C62.831 39.8039 62.9482 39.9348 63.0919 40.0313C65.4918 41.6381 77.6203 50.1696 80.55 60.2698C83.1841 69.7467 80.0407 78.1494 71.4975 84.5619C70.7307 84.998 65.5065 85.9873 58.652 85.9873ZM50.6327 84.9629C50.7351 85.039 51.6805 85.5921 58.0784 85.6419C65.5709 85.6887 70.6956 84.6175 71.3014 84.2634C79.7071 77.9504 82.7948 69.6735 80.2134 60.3459C77.3159 50.3628 65.287 41.9074 62.8958 40.2976C62.707 40.1719 62.5522 40.0012 62.4455 39.801C62.3388 39.6008 62.2833 39.3772 62.2841 39.1504V37.2919C62.2853 37.1609 62.2483 37.0325 62.1776 36.9223C62.1069 36.8121 62.0056 36.7249 61.8861 36.6714C61.5553 36.525 60.8997 36.3524 59.6529 36.3524C58.644 36.3151 57.6381 36.4844 56.6969 36.8499C56.5697 36.9055 56.4621 36.998 56.388 37.1154C56.3139 37.2328 56.2767 37.3697 56.2813 37.5084L56.3516 39.3025C56.3627 39.5344 56.3148 39.7653 56.2124 39.9736C56.1101 40.1819 55.9565 40.3609 55.7662 40.4937C47.7849 46.0809 44.7733 50.8779 44.744 50.9247C38.5978 58.9616 37.3745 65.9302 40.7256 73.5368C43.1343 79.7269 50.5185 84.8546 50.5917 84.9073L50.6327 84.9629Z" fill="#F5EEE3"/>
<path d="M74.234 63.6147L59.3749 57.2344C56.2388 55.9278 53.6893 53.5189 52.2072 50.4619C52.1165 50.2716 52.0316 50.0784 51.9497 49.8765C51.1595 47.9741 50.6239 46.1624 49.8073 45.0269C46.0786 48.4365 44.5977 50.8365 44.5977 50.8365C37.8252 59.7104 37.5325 66.7171 40.5675 73.6067C43.0201 79.9138 50.4951 85.0503 50.4951 85.0503C50.4951 85.0503 50.7878 85.7527 58.0842 85.8113C65.3806 85.8698 70.6956 84.8191 71.3951 84.4093C77.5412 79.7909 80.0465 74.7218 80.8982 70.3843C79.6518 67.3403 77.2581 64.9088 74.234 63.6147V63.6147ZM69.4868 79.2582C69.3901 79.2769 69.2924 79.2896 69.1941 79.2963L68.4976 79.3636L68.1639 79.3987L68.3278 79.4719C68.4098 79.5129 68.4478 79.5334 68.4215 79.6095C68.3951 79.6855 68.2751 79.7382 68.079 79.7529H68.0439C67.719 79.7529 66.8966 79.5158 65.7025 79.0768C65.1902 78.8958 64.6914 78.6787 64.2099 78.427L63.6245 78.1344H63.4401C63.2114 78.1368 62.9866 78.194 62.7845 78.3012C62.6926 78.3601 62.6081 78.4299 62.5328 78.509C62.0846 78.9984 61.5762 79.4292 61.0197 79.7909C60.6655 79.9724 60.2963 80.1232 59.9163 80.2416C59.2315 80.4699 58.9885 80.505 58.6724 80.4172C58.4881 80.3646 58.4003 80.2914 58.3798 80.1685C58.3593 80.0455 58.3798 80.0543 58.4881 79.8407C58.6182 79.5847 58.7915 79.353 59.0002 79.1558C59.2358 78.8975 59.4955 78.6623 59.7758 78.4534C60.0566 78.2331 60.3799 78.0733 60.7255 77.9842C61.071 77.895 61.4313 77.8784 61.7836 77.9353C62.0217 77.9647 62.2625 77.9647 62.5006 77.9353C62.6579 77.8984 62.8133 77.8535 62.966 77.8007L62.6733 77.6397L61.9241 77.2241C61.7357 77.0952 61.5283 76.9965 61.3094 76.9315C61.0512 76.8533 60.7882 76.7917 60.5221 76.7471C60.1552 76.6822 59.7824 76.6557 59.41 76.6681V76.6681C59.0544 76.6479 58.7004 76.7295 58.3895 76.9031C58.0785 77.0767 57.8234 77.3353 57.6539 77.6485L57.6159 77.7129C57.4967 77.9224 57.4155 78.1513 57.3759 78.389C57.2705 78.7783 57.2793 78.7841 57.452 78.9568C57.7607 79.2571 57.9455 79.6623 57.97 80.0924C57.97 80.2621 57.9086 81.3714 57.8881 81.5236C57.8649 81.7283 57.8034 81.9269 57.7066 82.1089C57.613 82.2904 57.5339 82.4016 57.4139 82.4016C57.3678 82.3984 57.3229 82.3854 57.2822 82.3635C57.171 82.3079 57.0744 82.1674 56.9369 81.8601C56.5974 81.1711 56.4643 80.3987 56.5535 79.6358C56.628 79.396 56.7312 79.166 56.8608 78.9509C57.0359 78.6437 57.1735 78.3164 57.2705 77.9763C57.1681 78.0671 56.9779 78.269 56.7701 78.4885C56.6705 78.5968 56.5447 78.7314 56.4774 78.7812C56.4268 78.8279 56.3825 78.881 56.3457 78.9392C56.3052 79.0591 56.272 79.1812 56.2462 79.3051C56.1866 79.6245 56.0686 79.9301 55.8979 80.2065C55.7661 80.4222 55.5988 80.6142 55.4033 80.7743C55.0792 81.0489 54.7391 81.304 54.3847 81.5382C54.1799 81.6553 54.0774 81.6787 53.9779 81.6289C53.8257 81.5499 53.817 81.3831 53.855 81.0582C53.9092 80.6038 54.0305 80.16 54.215 79.7412C54.3109 79.4895 54.4776 79.271 54.695 79.1119C54.9338 78.9535 55.2065 78.8533 55.4911 78.8192C55.7134 78.7843 55.9301 78.7193 56.1349 78.6261C56.736 78.173 57.2804 77.6492 57.7564 77.0661C57.8251 76.984 57.8984 76.9059 57.9759 76.832V76.832H57.9437C57.5068 76.9779 57.0554 77.076 56.5974 77.1246L56.2637 77.1656C55.6866 77.2918 55.1237 77.4762 54.5838 77.7158C54.4316 77.8036 54.1418 77.9675 53.9223 78.6524C53.8609 78.826 53.7875 78.9952 53.7028 79.1587V79.1851C53.6078 79.4062 53.4683 79.6055 53.2931 79.7704L53.2579 79.8085C52.858 80.236 52.318 80.506 51.736 80.5694C51.5634 80.5958 51.5165 80.4436 51.4697 80.3002C51.4697 80.2621 51.4463 80.2211 51.4316 80.1831C51.3292 79.9138 51.4316 79.7207 51.6307 79.3958C51.6654 79.3384 51.7056 79.2845 51.7507 79.2348C51.8549 79.1235 51.9527 79.0062 52.0433 78.8836C52.2724 78.5605 52.5544 78.2785 52.8775 78.0495L53.0033 77.9529C53.1621 77.8105 53.3598 77.7188 53.5711 77.6895C53.8496 77.653 54.1239 77.5903 54.3906 77.5022L54.4872 77.4554C55.0887 77.1556 55.7305 76.9446 56.3925 76.829C56.5476 76.8056 56.8842 76.7676 57.1535 76.7383C56.9774 76.72 56.8024 76.6916 56.6296 76.6534C56.3097 76.5635 55.9697 76.5768 55.6579 76.6915C55.2871 76.7913 54.9095 76.8637 54.5282 76.9081C53.6852 76.99 52.9682 76.8524 52.7458 76.5656C52.6925 76.5268 52.6562 76.4691 52.6442 76.4043C52.6322 76.3395 52.6455 76.2726 52.6814 76.2173C52.7633 76.0593 52.974 75.9422 53.4716 75.7813C53.8537 75.6385 54.2617 75.5787 54.6686 75.6056C55.1069 75.6695 55.5268 75.8251 55.9008 76.0622C56.0504 76.1587 56.2092 76.2401 56.3749 76.3051C56.6936 76.4 57.0212 76.4618 57.3525 76.4895C57.7446 76.5249 58.1398 76.4973 58.5232 76.4076C58.8703 76.3558 59.2202 76.3245 59.571 76.3139H59.6997C59.9435 76.3017 60.1877 76.3017 60.4314 76.3139L60.3992 76.2934C59.6353 75.8222 58.1398 74.751 57.1359 73.952L56.6062 73.5335L56.3837 73.4574C55.9573 73.3025 55.5085 73.2185 55.055 73.2086C54.7883 73.2772 54.5377 73.3975 54.3174 73.5628C54.1594 73.6652 53.9428 73.7969 53.8374 73.8554C53.0102 74.219 52.1002 74.3524 51.2034 74.2418C50.9737 74.2281 50.7476 74.1787 50.5331 74.0954C50.494 74.0775 50.4592 74.0512 50.4314 74.0183C50.4036 73.9854 50.3833 73.9468 50.3722 73.9052C50.3631 73.8624 50.363 73.8181 50.3721 73.7752C50.3812 73.7324 50.3992 73.6919 50.4248 73.6564C50.6513 73.4217 50.9232 73.2355 51.2238 73.1091C51.8962 72.8104 52.6193 72.6425 53.3545 72.6145H53.375C53.6843 72.6114 53.9923 72.6558 54.2882 72.7462C54.7204 72.8622 55.164 72.9309 55.6111 72.9511C55.7197 72.9532 55.8281 72.961 55.9359 72.9745C55.8745 72.913 55.7691 72.8164 55.6432 72.6964C55.1252 72.2282 54.7008 71.8184 54.1301 71.2331L53.6384 70.7326L53.3311 70.5775C52.9635 70.3894 52.5683 70.261 52.1604 70.197C51.4609 70.0419 51.2678 70.036 50.94 70.1619C50.745 70.2557 50.5638 70.3758 50.4014 70.5189C50.4014 70.5189 50.4014 70.5599 50.4395 70.6126C50.4926 70.7137 50.5191 70.8266 50.5166 70.9408C50.514 71.055 50.4824 71.1666 50.4248 71.2653C50.2492 71.6135 49.8834 71.8272 48.9176 72.1433C48.4698 72.2926 48.3907 72.3189 48.3322 72.2018C48.2737 72.0848 48.7683 71.236 49.0873 70.8936C49.2076 70.7576 49.3539 70.6471 49.5175 70.5687C49.6974 70.4882 49.8875 70.4331 50.0824 70.4048V70.4048C50.1117 70.4041 50.1401 70.3949 50.1644 70.3785L50.3136 70.2555C50.4652 70.1263 50.636 70.0216 50.82 69.9453V69.9453H50.5273C50.4687 69.9453 50.3253 69.9453 50.2053 69.9716C50.0938 69.9877 49.9814 69.9974 49.8688 70.0009V70.0009C49.6493 70.0009 49.5995 70.0243 49.1576 70.3228C48.777 70.585 48.3528 70.7772 47.9049 70.8906C47.3696 71.0526 46.7993 71.0597 46.2601 70.9111C46.1459 70.8643 46.1167 70.8467 46.0962 70.7823C46.0581 70.6623 46.1401 70.5775 46.3391 70.4341C46.9638 70.0259 47.6583 69.7362 48.3878 69.5794C48.6396 69.5738 48.8911 69.5984 49.1371 69.6526C49.4508 69.7248 49.7722 69.7582 50.0941 69.7521L50.3868 69.7375C50.4102 69.7375 50.58 69.7375 50.6795 69.7375H50.738L50.3429 69.5531C50.0757 69.4318 49.8184 69.2899 49.5732 69.1287C49.2845 68.953 49.0139 68.7491 48.7654 68.52C48.7219 68.4729 48.6883 68.4175 48.6667 68.3572C48.6451 68.2968 48.6358 68.2327 48.6395 68.1687C48.6776 67.9961 48.9029 67.8936 49.2249 67.9053C49.5715 67.9201 49.9131 67.9943 50.2346 68.1248C50.6364 68.4117 50.9842 68.7674 51.2619 69.1756C51.4149 69.4009 51.6049 69.5988 51.8238 69.7609C51.8531 69.7755 52.0346 69.8282 52.2482 69.8838C52.4619 69.9394 52.7341 70.0097 52.8716 70.0536L53.015 70.0975C52.9565 70.036 52.8658 69.9394 52.7487 69.8224C52.1048 69.1668 51.4492 68.4351 50.7936 67.6419C49.98 66.6556 49.7488 66.3893 49.5644 66.2107C49.3025 65.9439 48.9901 65.732 48.6454 65.5873C48.418 65.4548 48.1752 65.3506 47.9225 65.2771C47.6289 65.1846 47.3252 65.1277 47.0181 65.1074C46.5735 65.0869 46.1354 64.9929 45.7215 64.8293C45.4417 64.7269 45.1738 64.5945 44.9225 64.4342C44.8996 64.417 44.8815 64.3943 44.8697 64.3682C44.8579 64.3421 44.8529 64.3135 44.8552 64.2849C44.8552 64.2293 44.9138 64.1825 45.0045 64.1503C45.328 64.0641 45.6661 64.0471 45.9967 64.1006C46.3479 64.1503 46.582 64.2615 47.1674 64.6391C47.4579 64.82 47.7634 64.9757 48.0805 65.1044C48.4354 65.254 48.7822 65.422 49.1195 65.6078L49.0522 65.523C48.7748 65.1525 48.4327 64.8352 48.0425 64.5864C47.6042 64.3134 47.2136 63.9703 46.8864 63.5708C46.7547 63.4011 46.7079 63.325 46.7605 63.2518C46.8132 63.1786 47.3078 63.2664 47.5771 63.3718C47.9239 63.5065 48.2274 63.7332 48.4551 64.0274C48.5224 64.1313 48.5802 64.241 48.6278 64.3552C48.8532 64.8849 48.9205 65.0196 48.9439 65.0547C48.9673 65.0898 49.5088 65.7308 49.8834 66.1581V66.1405C49.709 65.7582 49.5537 65.3675 49.418 64.9698C49.3533 64.7562 49.266 64.5502 49.1576 64.3552C48.9125 63.8825 48.6224 63.4346 48.2912 63.0176C48.2105 62.9556 48.1265 62.898 48.0395 62.845C47.6605 62.6216 47.3196 62.339 47.0298 62.0079C46.8893 61.8265 46.8425 61.6596 46.904 61.5572C46.9274 61.5162 46.9947 61.4518 47.1615 61.484C47.3676 61.5477 47.5644 61.6382 47.7469 61.7533C48.0337 62.021 48.2593 62.3474 48.4083 62.7103C48.5728 63.0503 48.7616 63.3779 48.9732 63.6908L48.9995 63.7318L48.982 63.6615C48.9381 63.5152 48.8678 63.2372 48.8181 63.0411C48.7245 62.662 48.5982 62.2919 48.4405 61.9347C48.3937 61.8352 48.221 61.5162 48.0571 61.2265C47.6444 60.5006 47.58 60.2899 47.5713 59.6109C47.5713 59.3504 47.5713 59.0519 47.7556 59.046C47.888 59.0844 48.0067 59.1595 48.0981 59.2626C48.2741 59.4703 48.4309 59.6937 48.5664 59.9299C48.7185 60.205 48.7537 60.448 48.7303 61.1182C48.7303 61.4372 48.7303 61.8089 48.7303 61.9962C48.7303 62.1835 49.3683 64.1766 49.5351 64.6098C49.5351 64.402 49.5995 63.9659 49.62 63.8869C49.6384 63.7384 49.6473 63.5888 49.6463 63.4391C49.6463 63.2225 49.6697 62.9591 49.6844 62.8538C49.6969 62.7063 49.744 62.5639 49.8219 62.4382C49.8795 62.308 49.9598 62.1891 50.059 62.0869L50.4278 61.6772C50.7204 61.364 50.7819 61.2938 50.8726 61.2587C50.9188 61.2466 50.9676 61.2501 51.0115 61.2687C51.0554 61.2872 51.092 61.3197 51.1156 61.3611C51.1974 61.6261 51.1974 61.9097 51.1156 62.1747C51.0395 62.5025 50.8668 62.7601 50.3692 63.2576C50.1917 63.4213 50.0397 63.6107 49.9185 63.8196C49.7219 64.3096 49.7012 64.8526 49.86 65.3561C49.9312 65.6319 50.0374 65.8975 50.1761 66.1464V66.1639C50.2551 66.319 50.3546 66.5239 50.4044 66.6234C50.4541 66.7229 50.5273 66.8605 50.5624 66.9161C50.5975 66.9717 51.1273 67.5892 51.379 67.8702L51.3029 67.7005C51.1331 67.3229 50.8668 66.6761 50.7556 66.3659C50.669 66.1109 50.6073 65.8483 50.5712 65.5815C50.5136 65.1554 50.568 64.7216 50.7292 64.323C50.8112 64.1591 50.8697 64.1357 51.0219 64.2118C51.1741 64.2879 51.3146 64.4723 51.4902 64.8732C51.6496 65.2908 51.6989 65.7423 51.6336 66.1844C51.5762 66.8113 51.6408 67.4435 51.8238 68.0458C51.9088 68.2841 52.0259 68.5096 52.1721 68.7161C52.3536 68.9239 53.6179 70.1794 54.6364 71.1628C55.014 71.5257 55.4735 71.953 55.7486 72.196L55.8803 72.3101L55.8364 72.1755C55.7468 71.8761 55.6774 71.571 55.6286 71.2623C55.5759 70.9697 55.5028 70.3375 55.4969 70.1355C55.4696 69.9767 55.4098 69.8253 55.3213 69.6907C55.2007 69.4126 55.0453 69.151 54.8589 68.9121C54.6397 68.682 54.3941 68.4787 54.1272 68.3063C53.3399 67.721 53.0238 67.4283 52.775 67.0332C52.5263 66.6381 52.2482 65.8917 52.3331 65.722C52.3604 65.6866 52.3954 65.6579 52.4354 65.6381C52.4755 65.6183 52.5196 65.6079 52.5643 65.6078C53.029 65.719 53.4636 65.9308 53.8374 66.2283C54.1809 66.4922 54.4676 66.8227 54.6803 67.2C54.8763 67.5721 55.0304 67.9647 55.1398 68.3707C55.2125 68.6563 55.3186 68.9324 55.4559 69.1931L55.494 69.2399C55.494 69.196 55.494 69.1287 55.5086 69.0468C55.5291 68.7131 55.5876 68.1483 55.6257 67.9053C55.7444 67.2816 55.9349 66.6736 56.1935 66.0937C56.2942 65.8518 56.3678 65.5996 56.413 65.3415C56.413 65.2742 56.4393 64.9581 56.4481 64.642C56.428 64.1612 56.4883 63.6805 56.6266 63.2196C56.6973 62.9574 56.8208 62.7124 56.9896 62.4996C57.4169 61.9143 57.7915 61.5513 58.0725 61.4694C58.119 61.4472 58.1705 61.4376 58.2219 61.4417C58.2733 61.4459 58.3227 61.4635 58.3651 61.4928C58.4676 61.5806 58.4851 61.727 58.4354 62.0547C58.3856 62.3825 58.0929 63.7201 58.0227 63.9367C57.9099 64.3244 57.7016 64.6776 57.4169 64.9639C57.0615 65.3488 56.743 65.7663 56.4657 66.2107C56.2191 66.8547 56.0454 67.5242 55.9476 68.2068C55.9476 68.3151 55.9213 68.4087 55.9184 68.4585C55.9732 68.4077 56.0232 68.3518 56.0676 68.2917C56.1638 68.1766 56.2695 68.0699 56.3837 67.9727L56.5915 67.797L56.7466 67.519C56.8625 67.2954 57.0082 67.0887 57.1798 66.9044C57.4959 66.5502 57.651 66.4654 58.4383 66.2049C59.1232 65.9766 59.2285 65.959 59.2988 66.0468C59.369 66.1347 59.331 66.2664 59.1993 66.5298C59.0558 66.8624 58.8445 67.1615 58.5788 67.4078C58.2222 67.6318 57.824 67.7811 57.4081 67.8468C56.8227 67.9375 56.7876 67.9492 56.5096 68.1863C56.2923 68.3754 56.0961 68.5874 55.9242 68.8185C55.8774 68.8858 55.8745 68.9004 55.8598 69.1902C55.827 69.8464 55.8762 70.5041 56.0062 71.1482C56.0227 71.0573 56.0442 70.9674 56.0706 70.8789C56.1393 70.6633 56.1825 70.4403 56.1993 70.2146C56.2254 69.9511 56.2894 69.6928 56.3896 69.4477C56.5856 69.1333 56.8387 68.8584 57.1359 68.637C57.6861 68.1453 57.9729 67.9697 58.1486 68.0107C58.1976 68.0235 58.2396 68.055 58.2656 68.0985C58.3137 68.1883 58.3252 68.2931 58.2978 68.3912C58.1948 68.7191 58.047 69.0313 57.8588 69.319C57.6475 69.5666 57.3998 69.7807 57.1242 69.9541C56.5827 70.358 56.5096 70.4224 56.4159 70.5775C56.2699 70.9007 56.1913 71.2502 56.1847 71.6048C56.1763 71.7577 56.214 71.9096 56.293 72.0409C56.4454 72.4123 56.6419 72.7641 56.8783 73.0886C56.9954 73.2525 57.0159 73.2701 57.3964 73.5657C58.2539 74.2301 59.3836 75.0291 60.3436 75.673C60.7987 75.9678 61.2696 76.2375 61.7543 76.4807L61.9036 76.551L61.8187 76.3198C61.5553 75.6056 61.5085 75.5061 61.3299 75.2661C61.1502 75.0308 60.9472 74.8141 60.7241 74.6193C60.6104 74.565 60.4905 74.5247 60.367 74.4993L59.8958 74.3735C59.8022 74.3442 59.6383 74.3003 59.53 74.274C59.0833 74.1602 58.6738 73.9322 58.3417 73.6125C57.7958 73.0871 57.3678 72.4516 57.0861 71.7482C57.051 71.6685 57.034 71.5819 57.0366 71.4948C57.0391 71.4077 57.061 71.3223 57.1008 71.2448C57.1356 71.2004 57.18 71.1644 57.2307 71.1396C57.2814 71.1147 57.337 71.1017 57.3935 71.1014C57.7388 71.0966 58.0772 71.1989 58.3622 71.394C59.3954 71.9618 59.7495 72.354 60.37 73.595C60.6802 74.2154 60.7534 74.3296 60.9817 74.5374C61.1271 74.6715 61.2612 74.8173 61.3826 74.9735V74.9383C61.3621 74.8476 61.3182 74.6105 61.2831 74.4115C61.2361 74.0488 61.1557 73.6912 61.0431 73.3433C61.008 73.2672 60.8617 73.0125 60.7124 72.7579C60.5828 72.5564 60.4655 72.3473 60.3612 72.1316C60.1656 71.6417 60.1208 71.1047 60.2324 70.5892C60.3149 69.9679 60.4947 69.3634 60.7651 68.798C60.9758 68.3765 61.1221 68.2127 61.3329 68.16C61.5436 68.1073 61.7075 68.2653 61.8889 68.7043C62.0456 69.0925 62.1585 69.497 62.2255 69.9102C62.3894 70.8409 62.3923 71.1657 62.2255 71.7335C62.1141 72.1267 61.9579 72.5057 61.7602 72.8633C61.6345 73.0754 61.5362 73.3026 61.4675 73.5394C61.4102 73.7303 61.4102 73.9338 61.4675 74.1247C61.5566 74.6379 61.6938 75.1416 61.8772 75.6291C61.9416 75.7725 62.0704 76.0271 62.1436 76.1559V76.1295C62.1436 76.0593 62.1728 75.8544 62.2021 75.6759C62.2516 75.3578 62.2516 75.034 62.2021 74.7159C62.1624 74.3805 62.1624 74.0416 62.2021 73.7062C62.2466 73.5121 62.3238 73.327 62.4304 73.1589C62.5358 72.9481 62.6762 72.6994 62.7406 72.6028C62.9415 72.2951 63.1635 72.0017 63.405 71.7248C63.631 71.4848 63.8975 71.2867 64.1923 71.1394C64.271 71.1012 64.36 71.0899 64.4457 71.1074C64.5314 71.1248 64.609 71.17 64.6664 71.236C64.804 71.4292 64.7923 72.1638 64.643 72.875C64.5977 73.0821 64.5175 73.28 64.406 73.4603C64.3181 73.6587 64.206 73.8455 64.0723 74.0164C63.7977 74.3497 63.5046 74.6673 63.1943 74.9676C62.8021 75.3247 62.7084 75.4271 62.6323 75.5793C62.5437 75.7729 62.4864 75.9794 62.4626 76.191C62.4867 76.4041 62.5815 76.6029 62.7319 76.7559C62.8985 76.9605 63.1111 77.123 63.3523 77.23C63.5074 77.309 63.7504 77.4232 63.8908 77.4817C64.0313 77.5402 64.3767 77.6983 64.6664 77.8329C65.4102 78.1861 66.1779 78.4863 66.9639 78.7314C67.1686 78.8027 67.3792 78.8555 67.5932 78.8895C67.719 78.907 67.9386 78.9422 68.082 78.9685C68.4361 79.0267 68.7943 79.0561 69.1532 79.0563C69.2523 79.0484 69.352 79.0613 69.4458 79.0943C69.5073 79.1295 69.5307 79.1587 69.5161 79.188C69.5014 79.2173 69.5863 79.2319 69.4868 79.2582Z" fill="#F5EEE3"/>
<path d="M19.1878 90.187C18.6874 89.5168 18.1576 88.87 17.6952 88.1705L16.9752 87.1344L16.305 86.0691C15.8513 85.3637 15.465 84.6057 15.0436 83.8916C14.8445 83.5228 14.6602 83.1453 14.4582 82.7706C14.2563 82.396 14.0777 82.0243 13.908 81.6409L13.3812 80.4936C13.2085 80.1102 13.0621 79.718 12.9012 79.3229C12.5705 78.5502 12.3158 77.7512 12.0231 76.961C11.4876 75.3721 11.0352 73.7562 10.6681 72.1201C10.3039 70.4768 10.0226 68.8162 9.82515 67.1447C9.63996 65.4729 9.54227 63.7926 9.53248 62.1106C9.49853 58.7546 9.85705 55.4061 10.6007 52.1333C10.1681 55.4315 10.0173 58.7605 10.15 62.0843C10.4023 68.7305 11.8725 75.2739 14.4875 81.3892C15.8088 84.4465 17.3809 87.3892 19.1878 90.187V90.187Z" fill="#F5EEE3"/>
<path d="M10.5768 52.3146C9.99149 52.7155 8.9964 52.7741 8.32324 52.6745C9.36661 52.1807 10.2589 51.4168 10.9076 50.4619C11.1388 51.5887 11.8236 52.5663 12.567 53.4296C11.8588 53.2482 11.0217 52.9175 10.5768 52.3146Z" fill="#F5EEE3"/>
<path d="M109.39 52.1274C110.134 55.4002 110.492 58.7487 110.458 62.1048C110.448 63.7867 110.351 65.467 110.165 67.1388C109.969 68.8106 109.688 70.4712 109.323 72.1143C108.955 73.7559 108.499 75.3767 107.959 76.9698C107.666 77.76 107.4 78.559 107.081 79.3317C106.92 79.7209 106.77 80.1131 106.601 80.5024L106.074 81.6496C105.904 82.0331 105.711 82.4077 105.521 82.7823C105.33 83.1569 105.146 83.5316 104.935 83.9003C104.514 84.6291 104.128 85.3637 103.674 86.0778L103.021 87.1344L102.313 88.1705C101.851 88.87 101.318 89.5197 100.82 90.187C102.626 87.3891 104.197 84.4464 105.518 81.3892C108.128 75.2746 109.596 68.7337 109.849 62.0901C109.981 58.7622 109.828 55.4291 109.39 52.1274V52.1274Z" fill="#F5EEE3"/>
<path d="M100.925 90.0318C101.616 89.9177 102.55 90.2952 103.115 90.6757C101.961 90.669 100.827 90.9722 99.8308 91.5538C100.106 90.4357 99.9099 89.2592 99.6113 88.1616C100.167 88.6387 100.782 89.2972 100.925 90.0318Z" fill="#F5EEE3"/>
</svg>
